<svg aria-hidden="true" xmlns="http://www.w3.org/2000/svg" xmlns:xlink="http://www.w3.org/1999/xlink"><symbol viewBox="0 0 32 33" fill="none" id="academy" xmlns="http://www.w3.org/2000/svg">
<path d="M8.77667 10.3855C12.7861 11.0924 15.1757 12.5709 16 13.4198C16.8243 12.5709 19.2139 11.0924 23.2233 10.3855C25.2545 10.0274 26.2701 9.84838 27.1351 10.5346C28 11.2209 28 12.3353 28 14.5641V22.5738C28 24.6118 28 25.6308 27.4449 26.2669C26.8897 26.903 25.6676 27.1185 23.2233 27.5494C21.0444 27.9336 19.3439 28.5456 18.1129 29.1606C16.902 29.7658 16.2964 30.0684 16 30.0684C15.7036 30.0684 15.098 29.7658 13.8871 29.1606C12.6561 28.5456 10.9556 27.9336 8.77667 27.5494C6.33239 27.1185 5.11024 26.903 4.55512 26.2669C4 25.6308 4 24.6118 4 22.5738V14.5641C4 12.3353 4 11.2209 4.86493 10.5346C5.72988 9.84838 6.74548 10.0274 8.77667 10.3855Z" stroke="currentColor" stroke-width="2" stroke-linecap="round" stroke-linejoin="round"/>
<path d="M16 12.7349V30.0682" stroke="currentColor" stroke-width="2" stroke-linejoin="round"/>
<path d="M11.3334 4.81279C12.6819 3.91866 14.2786 3.40137 15.9902 3.40137C17.71 3.40137 19.314 3.92373 20.6667 4.82591M18.163 8.06803C17.5228 7.6817 16.781 7.46082 15.9902 7.46082C15.2078 7.46082 14.4734 7.67702 13.8379 8.05574" stroke="currentColor" stroke-width="2" stroke-linecap="round"/>
</symbol><symbol viewBox="0 0 20 20" fill="none" id="arrow" xmlns="http://www.w3.org/2000/svg">
<path d="M16.6668 10H3.3335" stroke="currentColor" stroke-width="1.5" stroke-linecap="round" stroke-linejoin="round"/>
<path d="M12.5003 14.1666C12.5003 14.1666 16.6669 11.098 16.6669 9.99998C16.6669 8.90198 12.5002 5.83331 12.5002 5.83331" stroke="currentColor" stroke-width="1.5" stroke-linecap="round" stroke-linejoin="round"/>
</symbol><symbol viewBox="0 0 32 33" fill="none" id="community" xmlns="http://www.w3.org/2000/svg">
<path d="M27.6985 24.7349C28.6976 24.7349 29.4923 24.1062 30.2057 23.227C31.6664 21.4274 29.2683 19.9893 28.3536 19.285C27.4239 18.569 26.3857 18.1634 25.3332 18.0682M23.9999 15.4015C25.8408 15.4015 27.3332 13.9091 27.3332 12.0682C27.3332 10.2272 25.8408 8.73486 23.9999 8.73486" stroke="currentColor" stroke-width="2" stroke-linecap="round"/>
<path d="M4.30108 24.7349C3.302 24.7349 2.50736 24.1062 1.79385 23.227C0.333251 21.4274 2.73136 19.9893 3.64599 19.285C4.57576 18.569 5.61391 18.1634 6.66647 18.0682M7.33313 15.4015C5.49219 15.4015 3.9998 13.9091 3.9998 12.0682C3.9998 10.2272 5.49219 8.73486 7.33313 8.73486" stroke="currentColor" stroke-width="2" stroke-linecap="round"/>
<path d="M10.7782 20.883C9.41583 21.7254 5.84377 23.4455 8.0194 25.5979C9.08217 26.6494 10.2658 27.4014 11.754 27.4014H20.2457C21.7338 27.4014 22.9174 26.6494 23.9802 25.5979C26.1558 23.4455 22.5838 21.7254 21.2214 20.883C18.0266 18.9075 13.9729 18.9075 10.7782 20.883Z" stroke="currentColor" stroke-width="2" stroke-linecap="round" stroke-linejoin="round"/>
<path d="M20.6665 10.735C20.6665 13.3124 18.5772 15.4017 15.9998 15.4017C13.4225 15.4017 11.3331 13.3124 11.3331 10.735C11.3331 8.15769 13.4225 6.06836 15.9998 6.06836C18.5772 6.06836 20.6665 8.15769 20.6665 10.735Z" stroke="currentColor" stroke-width="2"/>
</symbol><symbol viewBox="0 0 20 21" fill="none" id="done" xmlns="http://www.w3.org/2000/svg">
<path d="M12.5 2.28287C11.7108 2.03499 10.871 1.90137 9.99996 1.90137C5.39758 1.90137 1.66663 5.63233 1.66663 10.2347C1.66663 14.837 5.39758 18.568 9.99996 18.568C14.6023 18.568 18.3333 14.837 18.3333 10.2347C18.3333 9.3637 18.1996 8.5239 17.9518 7.7347" stroke="currentColor" stroke-width="1.25" stroke-linecap="round"/>
<path d="M7.08337 8.15153L10 11.0682L17.5002 2.73486" stroke="currentColor" stroke-width="1.25" stroke-linecap="round" stroke-linejoin="round"/>
</symbol><symbol viewBox="0 0 20 21" fill="none" id="dots" xmlns="http://www.w3.org/2000/svg">
<path d="M11.25 4.48486C11.25 3.7945 10.6903 3.23486 10 3.23486C9.30967 3.23486 8.75 3.7945 8.75 4.48486C8.75 5.17522 9.30967 5.73486 10 5.73486C10.6903 5.73486 11.25 5.17522 11.25 4.48486Z" fill="currentColor" stroke="currentColor" stroke-width="0.833333"/>
<path d="M11.25 10.7349C11.25 10.0445 10.6903 9.48486 10 9.48486C9.30967 9.48486 8.75 10.0445 8.75 10.7349C8.75 11.4252 9.30967 11.9849 10 11.9849C10.6903 11.9849 11.25 11.4252 11.25 10.7349Z" fill="currentColor" stroke="currentColor" stroke-width="0.833333"/>
<path d="M11.25 16.9849C11.25 16.2945 10.6903 15.7349 10 15.7349C9.30967 15.7349 8.75 16.2945 8.75 16.9849C8.75 17.6752 9.30967 18.2349 10 18.2349C10.6903 18.2349 11.25 17.6752 11.25 16.9849Z" fill="currentColor" stroke="currentColor" stroke-width="0.833333"/>
</symbol><symbol viewBox="0 0 24 24" fill="none" id="frame" xmlns="http://www.w3.org/2000/svg">
<path d="M7 2V22" stroke="currentColor" stroke-width="1.5" stroke-linecap="round"/>
<path d="M17 2V22" stroke="currentColor" stroke-width="1.5" stroke-linecap="round"/>
<path d="M22 7H2" stroke="currentColor" stroke-width="1.5" stroke-linecap="round"/>
<path d="M22 17H2" stroke="currentColor" stroke-width="1.5" stroke-linecap="round"/>
</symbol><symbol viewBox="0 0 32 33" fill="none" id="headphones" xmlns="http://www.w3.org/2000/svg">
<path d="M22.6666 15.1409C22.6666 14.6799 22.6666 14.4495 22.736 14.2442C22.9376 13.6475 23.469 13.4159 24.0014 13.1734C24.6 12.9008 24.8992 12.7645 25.1957 12.7405C25.5324 12.7132 25.8696 12.7858 26.1573 12.9473C26.5388 13.1613 26.8048 13.5681 27.0772 13.8989C28.335 15.4266 28.9638 16.1906 29.194 17.033C29.3797 17.7127 29.3797 18.4237 29.194 19.1034C28.8584 20.3321 27.798 21.3621 27.013 22.3154C26.6116 22.803 26.4108 23.0469 26.1573 23.1891C25.8696 23.3506 25.5324 23.4231 25.1957 23.3959C24.8992 23.3719 24.6 23.2357 24.0014 22.963C23.469 22.7205 22.9376 22.489 22.736 21.8922C22.6666 21.6869 22.6666 21.4565 22.6666 20.9955V15.1409Z" stroke="currentColor" stroke-width="2"/>
<path d="M9.33329 15.141C9.33329 14.5607 9.317 14.0391 8.84784 13.6311C8.6772 13.4827 8.45096 13.3797 7.99851 13.1736C7.39997 12.901 7.10071 12.7647 6.80417 12.7407C5.91451 12.6687 5.43585 13.2759 4.9228 13.8991C3.66496 15.4269 3.03604 16.1907 2.80591 17.0331C2.6202 17.713 2.6202 18.4239 2.80591 19.1037C3.14156 20.3323 4.20199 21.3622 4.98691 22.3157C5.48168 22.9166 5.95432 23.4649 6.80417 23.3962C7.10071 23.3722 7.39997 23.2358 7.99851 22.9633C8.45096 22.7571 8.6772 22.6541 8.84784 22.5057C9.317 22.0977 9.33329 21.5762 9.33329 20.9958V15.141Z" stroke="currentColor" stroke-width="2"/>
<path d="M6.66663 12.7349C6.66663 8.31658 10.8453 4.73486 16 4.73486C21.1546 4.73486 25.3333 8.31658 25.3333 12.7349" stroke="currentColor" stroke-width="2" stroke-linecap="square" stroke-linejoin="round"/>
<path d="M25.3334 23.4014V24.468C25.3334 26.8244 22.9455 28.7347 20 28.7347H17.3334" stroke="currentColor" stroke-width="2" stroke-linecap="round" stroke-linejoin="round"/>
</symbol><symbol viewBox="0 0 20 21" fill="none" id="link" xmlns="http://www.w3.org/2000/svg">
<path d="M7.91675 12.9471L12.0834 8.7804" stroke="currentColor" stroke-width="1.25" stroke-linecap="round"/>
<path d="M14.0386 13.0384L16.2132 10.8638C17.9289 9.14804 17.9289 6.36629 16.2132 4.65056C14.4975 2.93484 11.7157 2.93484 10 4.65056L7.82537 6.82519M12.1746 14.9024L10 17.077C8.28427 18.7927 5.50253 18.7927 3.7868 17.077C2.07107 15.3612 2.07107 12.5795 3.7868 10.8638L5.96142 8.68915" stroke="currentColor" stroke-width="1.25" stroke-linecap="round"/>
</symbol><symbol viewBox="0 0 24 25" fill="none" id="manage" xmlns="http://www.w3.org/2000/svg">
<path d="M20.5 16.5627C17.9985 22.4909 9.86407 24.2184 5.20143 19.599C0.629483 15.0696 2.04493 6.86369 8.05653 4.23486" stroke="currentColor" stroke-width="1.5" stroke-linecap="round"/>
<path d="M17.6831 13.2349C19.5708 13.2349 20.5146 13.2349 21.1241 12.3899C21.1469 12.3583 21.1848 12.3016 21.2052 12.2685C21.7527 11.382 21.4705 10.7009 20.9063 9.33864C20.3946 8.10339 19.6447 6.98101 18.6993 6.03559C17.7538 5.09017 16.6315 4.34022 15.3962 3.82856C14.034 3.26432 13.3529 2.98219 12.4664 3.52963C12.4333 3.55009 12.3766 3.58795 12.345 3.61073C11.5 4.22026 11.5 5.16408 11.5 7.05172V9.16234C11.5 11.0822 11.5 12.0421 12.0964 12.6385C12.6928 13.2349 13.6527 13.2349 15.5725 13.2349H17.6831Z" stroke="currentColor" stroke-width="1.5"/>
</symbol><symbol viewBox="0 0 24 25" fill="none" id="mobile" xmlns="http://www.w3.org/2000/svg">
<path d="M5 9.73486C5 6.43503 5 4.78511 6.02513 3.75999C7.05025 2.73486 8.70017 2.73486 12 2.73486C15.2998 2.73486 16.9497 2.73486 17.9749 3.75999C19 4.78511 19 6.43503 19 9.73486V15.7349C19 19.0347 19 20.6846 17.9749 21.7098C16.9497 22.7349 15.2998 22.7349 12 22.7349C8.70017 22.7349 7.05025 22.7349 6.02513 21.7098C5 20.6846 5 19.0347 5 15.7349V9.73486Z" stroke="currentColor" stroke-width="1.5" stroke-linecap="round"/>
<path d="M11 19.7349H13" stroke="currentColor" stroke-width="1.5" stroke-linecap="round" stroke-linejoin="round"/>
<path d="M9 2.73486L9.089 3.26888C9.28188 4.42615 9.37832 5.00479 9.77519 5.3569C10.1892 5.7242 10.7761 5.73486 12 5.73486C13.2239 5.73486 13.8108 5.7242 14.2248 5.3569C14.6217 5.00479 14.7181 4.42615 14.911 3.26888L15 2.73486" stroke="currentColor" stroke-width="1.5" stroke-linejoin="round"/>
</symbol><symbol viewBox="0 0 6 5" fill="none" id="ok" xmlns="http://www.w3.org/2000/svg">
<path d="M0.666748 3.02653L2.12508 4.48486L5.33341 0.984863" stroke="currentColor" stroke-width="0.875" stroke-linecap="round" stroke-linejoin="round"/>
</symbol><symbol viewBox="0 0 20 21" fill="none" id="plus" xmlns="http://www.w3.org/2000/svg">
<path d="M10 4.06836V17.4017" stroke="currentColor" stroke-width="1.25" stroke-linecap="round" stroke-linejoin="round"/>
<path d="M3.33337 10.7349H16.6667" stroke="currentColor" stroke-width="1.25" stroke-linecap="round" stroke-linejoin="round"/>
</symbol><symbol viewBox="0 0 24 25" fill="none" id="protect" xmlns="http://www.w3.org/2000/svg">
<path d="M10.125 15.2348V9.23486M12 9.23486V7.73486M12 16.7348V15.2348M10.125 12.2348H13.875M13.875 12.2348C14.4963 12.2348 15 12.7385 15 13.3598V14.1098C15 14.7311 14.4963 15.2348 13.875 15.2348H9M13.875 12.2348C14.4963 12.2348 15 11.7311 15 11.1098V10.3599C15 9.73854 14.4963 9.23486 13.875 9.23486H9" stroke="currentColor" stroke-width="1.5" stroke-linecap="round" stroke-linejoin="round"/>
<path d="M21 11.9182V9.01515C21 7.37515 21 6.55515 20.5959 6.02015C20.1918 5.48516 19.2781 5.22543 17.4507 4.70596C16.2022 4.35106 15.1016 3.92349 14.2223 3.53315C13.0234 3.00096 12.424 2.73486 12 2.73486C11.576 2.73486 10.9766 3.00096 9.77771 3.53315C8.89839 3.92349 7.79784 4.35106 6.54933 4.70596C4.72193 5.22543 3.80822 5.48516 3.40411 6.02015C3 6.55515 3 7.37515 3 9.01515V11.9182C3 17.5434 8.06277 20.9184 10.594 22.2543C11.2011 22.5747 11.5046 22.7349 12 22.7349C12.4954 22.7349 12.7989 22.5747 13.406 22.2543C15.9372 20.9184 21 17.5434 21 11.9182Z" stroke="currentColor" stroke-width="1.5" stroke-linecap="round"/>
</symbol><symbol viewBox="0 0 24 24" fill="none" id="prototype" xmlns="http://www.w3.org/2000/svg">
<path d="M12 11.5C12.4955 11.5 12.9562 11.3015 13.8775 10.9045L14.5423 10.618C16.1808 9.91202 17 9.55902 17 9C17 8.44098 16.1808 8.08798 14.5423 7.38197L13.8775 7.09549C12.9562 6.6985 12.4955 6.5 12 6.5C11.5045 6.5 11.0438 6.6985 10.1225 7.09549L9.45768 7.38197C7.81923 8.08798 7 8.44098 7 9C7 9.55902 7.81923 9.91202 9.45768 10.618L10.1225 10.9045C11.0438 11.3015 11.5045 11.5 12 11.5ZM12 11.5V17.5" stroke="currentColor" stroke-width="1.5" stroke-linejoin="round"/>
<path d="M17 9V15C17 15.559 16.1808 15.912 14.5423 16.618L13.8775 16.9045C12.9562 17.3015 12.4955 17.5 12 17.5C11.5045 17.5 11.0438 17.3015 10.1225 16.9045L9.45768 16.618C7.81923 15.912 7 15.559 7 15V9" stroke="currentColor" stroke-width="1.5" stroke-linejoin="round"/>
<path d="M9.14426 2.5C6.48724 2.56075 4.93529 2.81456 3.87493 3.87493C2.81456 4.93529 2.56075 6.48724 2.5 9.14426M14.8557 2.5C17.5128 2.56075 19.0647 2.81456 20.1251 3.87493C21.1854 4.93529 21.4392 6.48724 21.5 9.14426M14.8557 21.5C17.5128 21.4392 19.0647 21.1854 20.1251 20.1251C21.1854 19.0647 21.4392 17.5128 21.5 14.8557M9.14426 21.5C6.48724 21.4392 4.93529 21.1854 3.87493 20.1251C2.81456 19.0647 2.56075 17.5128 2.5 14.8557" stroke="currentColor" stroke-width="1.5" stroke-linecap="round" stroke-linejoin="round"/>
</symbol><symbol viewBox="0 0 24 24" fill="none" id="refine" xmlns="http://www.w3.org/2000/svg">
<path d="M6.23433 7C4.60404 7 3.7889 7 3.32795 7.49503C2.86701 7.99006 2.96811 8.7569 3.17033 10.2906C3.22938 10.7385 3.3276 10.9928 3.62734 11.3402C4.59564 12.4627 6.36901 14.4592 8.85746 16.2744C9.08486 16.4402 9.23409 16.7113 9.25927 17.0112C9.34268 18.0054 9.42401 18.9059 9.5007 19.71C9.62524 21.0158 9.68751 21.6687 10.1633 21.9159C10.639 22.163 11.2333 21.8467 12.4219 21.2141L13.4884 20.6465C13.9287 20.4122 14.1489 20.295 14.2852 20.0974C14.4216 19.8998 14.4494 19.6615 14.5051 19.1851C14.577 18.5699 14.6529 17.8503 14.7307 17.0112C14.7583 16.714 14.907 16.446 15.1326 16.2816C17.6261 14.4642 19.403 12.4641 20.3726 11.3402C20.6724 10.9928 20.7706 10.7385 20.8297 10.2906C21.0319 8.7569 21.133 7.99006 20.672 7.49503C20.2111 7 19.396 7 17.7657 7" stroke="currentColor" stroke-width="1.5" stroke-linecap="round" stroke-linejoin="round"/>
<path d="M9.625 9.5V3.5M11.5 3.5V2M11.5 11V9.5M9.625 6.5H13.375M13.375 6.5C13.9963 6.5 14.5 7.00368 14.5 7.625V8.375C14.5 8.99632 13.9963 9.5 13.375 9.5H8.5M13.375 6.5C13.9963 6.5 14.5 5.99632 14.5 5.375V4.625C14.5 4.00368 13.9963 3.5 13.375 3.5H8.5" stroke="currentColor" stroke-width="1.5" stroke-linecap="round" stroke-linejoin="round"/>
</symbol><symbol viewBox="0 0 24 24" fill="none" id="scale" xmlns="http://www.w3.org/2000/svg">
<path d="M11.8013 6.48949L13.2869 5.00392C14.9596 3.3312 17.1495 2.63737 19.4671 2.52399C20.3686 2.47989 20.8193 2.45784 21.1807 2.81928C21.5422 3.18071 21.5201 3.63143 21.476 4.53289C21.3626 6.8505 20.6688 9.04042 18.9961 10.7131L17.5105 12.1987C16.2871 13.4221 15.9393 13.77 16.1961 15.097C16.4496 16.1107 16.6949 17.0923 15.9578 17.8294C15.0637 18.7235 14.2481 18.7235 13.354 17.8294L6.17058 10.646C5.27649 9.75188 5.27646 8.9363 6.17058 8.04219C6.90767 7.30509 7.88929 7.55044 8.90297 7.80389C10.23 8.06073 10.5779 7.71289 11.8013 6.48949Z" stroke="currentColor" stroke-width="1.5" stroke-linejoin="round"/>
<path d="M16.9958 7H17.0049" stroke="currentColor" stroke-width="2" stroke-linecap="round" stroke-linejoin="round"/>
<path d="M2.5 21.5L7.5 16.5" stroke="currentColor" stroke-width="1.5" stroke-linecap="round"/>
<path d="M8.5 21.5L10.5 19.5" stroke="currentColor" stroke-width="1.5" stroke-linecap="round"/>
<path d="M2.5 15.5L4.5 13.5" stroke="currentColor" stroke-width="1.5" stroke-linecap="round"/>
</symbol><symbol viewBox="0 0 20 21" fill="none" id="set" xmlns="http://www.w3.org/2000/svg">
<path d="M12.9166 10.8638C12.9166 12.4746 11.6108 13.7805 9.99992 13.7805C8.38909 13.7805 7.08325 12.4746 7.08325 10.8638C7.08325 9.25298 8.38909 7.94714 9.99992 7.94714C11.6108 7.94714 12.9166 9.25298 12.9166 10.8638Z" stroke="currentColor" stroke-width="1.25"/>
<path d="M17.5092 12.6109C17.9442 12.4936 18.1617 12.435 18.2475 12.3228C18.3334 12.2107 18.3334 12.0303 18.3334 11.6695V10.0581C18.3334 9.69737 18.3334 9.51695 18.2475 9.40487C18.1616 9.2927 17.9442 9.23403 17.5092 9.11677C15.8839 8.67844 14.8667 6.97921 15.2862 5.36451C15.4015 4.92044 15.4592 4.69842 15.4041 4.56819C15.349 4.43797 15.191 4.34823 14.8748 4.16875L13.4376 3.35273C13.1274 3.17661 12.9723 3.08855 12.8332 3.1073C12.6939 3.12605 12.5369 3.28273 12.2227 3.59606C11.0067 4.80918 8.99475 4.80913 7.7787 3.59598C7.46461 3.28264 7.30756 3.12598 7.16836 3.10722C7.02916 3.08847 6.87406 3.17653 6.56386 3.35264L5.12661 4.16868C4.81052 4.34814 4.65247 4.43788 4.5974 4.56808C4.54231 4.69828 4.59997 4.92034 4.71529 5.36445C5.13456 6.9792 4.11651 8.67848 2.49093 9.11678C2.05601 9.23403 1.83856 9.2927 1.75265 9.40478C1.66675 9.51695 1.66675 9.69737 1.66675 10.0581V11.6695C1.66675 12.0303 1.66675 12.2107 1.75265 12.3228C1.83854 12.435 2.05601 12.4936 2.49093 12.6109C4.11625 13.0492 5.13348 14.7485 4.71401 16.3631C4.59866 16.8072 4.54097 17.0292 4.59605 17.1595C4.65113 17.2897 4.80918 17.3795 5.12529 17.5589L6.56254 18.375C6.87276 18.551 7.02786 18.6391 7.16708 18.6204C7.3063 18.6016 7.46331 18.4449 7.77734 18.1315C8.994 16.9175 11.0074 16.9174 12.2242 18.1315C12.5382 18.4449 12.6952 18.6015 12.8344 18.6203C12.9736 18.639 13.1287 18.551 13.4389 18.3749L14.8762 17.5588C15.1923 17.3794 15.3504 17.2896 15.4054 17.1594C15.4605 17.0291 15.4028 16.8071 15.2874 16.363C14.8677 14.7485 15.8842 13.0493 17.5092 12.6109Z" stroke="currentColor" stroke-width="1.25" stroke-linecap="round"/>
</symbol><symbol viewBox="0 0 20 21" fill="none" id="social-fb" xmlns="http://www.w3.org/2000/svg">
<path d="M2.08337 10.235C2.08337 6.50308 2.08337 4.6371 3.24274 3.47773C4.40212 2.31836 6.26809 2.31836 10 2.31836C13.732 2.31836 15.598 2.31836 16.7574 3.47773C17.9167 4.6371 17.9167 6.50308 17.9167 10.235C17.9167 13.9669 17.9167 15.8329 16.7574 16.9924C15.598 18.1517 13.732 18.1517 10 18.1517C6.26809 18.1517 4.40212 18.1517 3.24274 16.9924C2.08337 15.8329 2.08337 13.9669 2.08337 10.235Z" stroke="currentColor" stroke-width="1.25" stroke-linejoin="round"/>
<path d="M14.1055 6.92334H11.6514C10.7816 6.92334 10.0746 7.62509 10.0682 8.49494L9.99707 18.0904M8.40173 11.9028H12.404" stroke="currentColor" stroke-width="1.25" stroke-linecap="round" stroke-linejoin="round"/>
</symbol><symbol viewBox="0 0 20 21" fill="none" id="social-insta" xmlns="http://www.w3.org/2000/svg">
<path d="M2.08325 10.235C2.08325 6.50308 2.08325 4.6371 3.24262 3.47773C4.40199 2.31836 6.26797 2.31836 9.99992 2.31836C13.7318 2.31836 15.5978 2.31836 16.7573 3.47773C17.9166 4.6371 17.9166 6.50308 17.9166 10.235C17.9166 13.9669 17.9166 15.8329 16.7573 16.9924C15.5978 18.1517 13.7318 18.1517 9.99992 18.1517C6.26797 18.1517 4.40199 18.1517 3.24262 16.9924C2.08325 15.8329 2.08325 13.9669 2.08325 10.235Z" stroke="currentColor" stroke-width="1.25" stroke-linejoin="round"/>
<path d="M13.75 10.2349C13.75 12.3059 12.0711 13.9849 10 13.9849C7.92893 13.9849 6.25 12.3059 6.25 10.2349C6.25 8.1638 7.92893 6.48486 10 6.48486C12.0711 6.48486 13.75 8.1638 13.75 10.2349Z" stroke="currentColor" stroke-width="1.25"/>
<path d="M14.5898 5.65137H14.5823" stroke="currentColor" stroke-width="1.66667" stroke-linecap="round" stroke-linejoin="round"/>
</symbol><symbol viewBox="0 0 20 21" fill="none" id="social-x" xmlns="http://www.w3.org/2000/svg">
<path d="M2.5 17.7349L8.79033 11.4445M8.79033 11.4445L2.5 2.73486H6.66667L11.2097 9.0252M8.79033 11.4445L13.3333 17.7349H17.5L11.2097 9.0252M17.5 2.73486L11.2097 9.0252" stroke="currentColor" stroke-width="1.25" stroke-linecap="round" stroke-linejoin="round"/>
</symbol><symbol viewBox="0 0 20 21" fill="none" id="start" xmlns="http://www.w3.org/2000/svg">
<path d="M7.19016 11.4251H6.80769C5.57125 11.4251 4.95302 11.4251 4.68951 11.0174C4.42599 10.6099 4.67707 10.0419 5.17924 8.90613L6.68894 5.49146C7.14551 4.45877 7.37381 3.94242 7.81668 3.65309C8.25956 3.36377 8.82162 3.36377 9.94587 3.36377H11.687C13.0527 3.36377 13.7355 3.36377 13.993 3.80989C14.2506 4.25602 13.9119 4.852 13.2343 6.04396L12.341 7.61534C12.0042 8.20789 11.8358 8.50418 11.8381 8.7467C11.8412 9.06189 12.0088 9.35227 12.2795 9.51127C12.4879 9.63369 12.8273 9.63369 13.5062 9.63369C14.3645 9.63369 14.7936 9.63369 15.0171 9.78227C15.3075 9.97527 15.4595 10.3206 15.4062 10.6664C15.3652 10.9326 15.0765 11.2518 14.4992 11.8902L9.88662 16.9907C8.98062 17.9925 8.52762 18.4934 8.22343 18.3349C7.91923 18.1764 8.06531 17.5156 8.35746 16.1939L8.92979 13.6051C9.15221 12.5988 9.26346 12.0956 8.99596 11.7604C8.72846 11.4251 8.21568 11.4251 7.19016 11.4251Z" stroke="currentColor" stroke-width="1.25" stroke-linejoin="round"/>
</symbol><symbol viewBox="0 0 9 7" fill="none" id="triangle" xmlns="http://www.w3.org/2000/svg">
<path d="M5.80234 1.82538L6.50019 2.68443C7.6309 4.07625 8.19621 4.77216 7.93835 5.33693C7.68049 5.90169 6.79738 5.90169 5.03115 5.90169H3.63543C1.86921 5.90169 0.986113 5.90169 0.728237 5.33693C0.47037 4.77216 1.03571 4.07625 2.1664 2.68444L2.86424 1.82538C3.54505 0.987364 3.8855 0.568359 4.33329 0.568359C4.78108 0.568359 5.12153 0.987364 5.80234 1.82538Z" fill="currentColor" stroke="currentColor" stroke-linecap="round" stroke-linejoin="round"/>
</symbol></svg>