<svg width="32" height="33" viewBox="0 0 32 33" fill="none" xmlns="http://www.w3.org/2000/svg">
<path d="M16 32.4319C24.8366 32.4319 32 25.2684 32 16.4319C32 7.59533 24.8366 0.431885 16 0.431885C7.16344 0.431885 0 7.59533 0 16.4319C0 25.2684 7.16344 32.4319 16 32.4319Z" fill="#F49B33"/>
<path d="M21.8938 13.1644C21.7373 11.1579 20.0162 10.4553 17.8378 10.2252L17.8869 7.44551L16.1964 7.4179L16.1473 10.1239C15.7024 10.1147 15.2484 10.1178 14.7943 10.1178L14.8434 7.39335L13.1529 7.36267L13.1038 10.1423C12.7387 10.1423 12.3767 10.1454 12.0269 10.1362V10.127L9.69209 10.0871L9.66141 11.8942C9.66141 11.8942 10.9132 11.8911 10.8917 11.9157C11.5759 11.928 11.7937 12.3299 11.852 12.6735L11.7968 15.8398C11.8428 15.8398 11.9042 15.8428 11.9747 15.8551L11.7968 15.852L11.7201 20.2885C11.6863 20.5032 11.5544 20.8438 11.0727 20.8376C11.0942 20.8561 9.84243 20.8162 9.84243 20.8162L9.47119 22.8288L11.6741 22.8687C12.0821 22.8779 12.4871 22.8902 12.8829 22.8994L12.8338 25.7097L14.5243 25.7374L14.5734 22.9577C15.0367 22.973 15.4877 22.9853 15.9264 22.9945L15.8773 25.7619L17.5678 25.7895L17.6169 22.9853C20.4641 22.8718 22.4675 22.1907 22.7621 19.5214C22.9983 17.3738 22.0043 16.3951 20.3966 15.9809C21.3845 15.5023 22.0135 14.634 21.8938 13.1644ZM19.421 19.1349C19.3872 21.2365 15.7914 20.9328 14.644 20.9143L14.7115 17.1897C15.8589 17.2081 19.4608 16.9412 19.421 19.1349ZM18.7276 13.8639C18.6938 15.7753 15.6963 15.4992 14.7421 15.4839L14.8004 12.1059C15.7546 12.1213 18.7613 11.8697 18.7276 13.8639Z" fill="white"/>
</svg>
