<svg width="32" height="33" viewBox="0 0 32 33" fill="none" xmlns="http://www.w3.org/2000/svg">
<path d="M16 32.4319C24.8366 32.4319 32 25.2684 32 16.4319C32 7.59533 24.8366 0.431885 16 0.431885C7.16344 0.431885 0 7.59533 0 16.4319C0 25.2684 7.16344 32.4319 16 32.4319Z" fill="#627EEA"/>
<path d="M16.4987 4.42944V13.2999L23.9956 16.6503L16.4987 4.42944Z" fill="white" fill-opacity="0.602"/>
<path d="M16.4987 4.42944L9.00171 16.6503L16.4987 13.2999V4.42944Z" fill="white"/>
<path d="M16.4987 22.3979V28.4252L24 18.0458L16.4987 22.3979Z" fill="white" fill-opacity="0.602"/>
<path d="M16.4987 28.4252V22.3979L9.00171 18.0458L16.4987 28.4252Z" fill="white"/>
<path d="M16.4987 21.0027L23.9956 16.6506L16.4987 13.3002V21.0027Z" fill="white" fill-opacity="0.2"/>
<path d="M9.00171 16.6506L16.4987 21.0027V13.3002L9.00171 16.6506Z" fill="white" fill-opacity="0.602"/>
</svg>
