<svg width="32" height="33" viewBox="0 0 32 33" fill="none" xmlns="http://www.w3.org/2000/svg">
<g clip-path="url(#clip0_1_238)">
<path d="M16 30.7001C23.8801 30.7001 30.2682 24.312 30.2682 16.4319C30.2682 8.5517 23.8801 2.16357 16 2.16357C8.11982 2.16357 1.73169 8.5517 1.73169 16.4319C1.73169 24.312 8.11982 30.7001 16 30.7001Z" fill="white"/>
<path d="M16 0.431885C12.8355 0.431885 9.74207 1.37027 7.11088 3.12837C4.4797 4.88647 2.42894 7.38533 1.21793 10.3089C0.0069325 13.2326 -0.309921 16.4496 0.307443 19.5533C0.924806 22.657 2.44866 25.508 4.6863 27.7456C6.92394 29.9832 9.77487 31.5071 12.8786 32.1244C15.9823 32.7418 19.1993 32.425 22.1229 31.214C25.0466 30.003 27.5454 27.9522 29.3035 25.321C31.0616 22.6898 32 19.5964 32 16.4319C32.0061 14.3368 31.5995 12.2611 30.8034 10.3232C30.0073 8.38528 28.8373 6.62315 27.3602 5.13741C25.8831 3.65167 24.1278 2.47142 22.1946 1.66405C20.2614 0.85667 18.188 0.437981 16.093 0.431885H16ZM16.2712 16.9743L14.6053 22.5917H23.5157C23.5748 22.5896 23.6336 22.5992 23.6889 22.6199C23.7443 22.6406 23.795 22.672 23.8381 22.7123C23.8813 22.7526 23.9161 22.801 23.9406 22.8547C23.965 22.9085 23.9786 22.9666 23.9806 23.0256V23.1728L23.2058 25.8459C23.1717 25.9723 23.0955 26.0834 22.9899 26.1608C22.8843 26.2383 22.7555 26.2775 22.6247 26.2721H8.9879L11.2736 18.4852L8.71671 19.26L9.29783 17.4779L11.8547 16.7031L15.0702 5.77813C15.1056 5.65243 15.1821 5.54218 15.2874 5.46495C15.3927 5.38773 15.5208 5.34796 15.6513 5.35198H19.0993C19.1583 5.34991 19.2172 5.3595 19.2725 5.38019C19.3278 5.40088 19.3785 5.43227 19.4217 5.47257C19.4648 5.51287 19.4996 5.56128 19.5241 5.61504C19.5486 5.6688 19.5622 5.72685 19.5642 5.78588V5.93309L16.8523 15.1534L19.4092 14.3786L18.8668 16.2382L16.2712 16.9743Z" fill="#345D9D"/>
</g>
<defs>
<clipPath id="clip0_1_238">
<rect width="32" height="32" fill="white" transform="translate(0 0.431885)"/>
</clipPath>
</defs>
</svg>
