<svg width="32" height="33" viewBox="0 0 32 33" fill="none" xmlns="http://www.w3.org/2000/svg">
<path d="M16.0011 7.41455C19.0467 7.41455 21.5157 5.9786 21.5157 4.20727C21.5157 2.43594 19.0467 1 16.0011 1C12.9554 1 10.4865 2.43594 10.4865 4.20727C10.4865 5.9786 12.9554 7.41455 16.0011 7.41455Z" fill="#E6007A"/>
<path d="M16.0011 31.5808C19.0467 31.5808 21.5157 30.1449 21.5157 28.3735C21.5157 26.6022 19.0467 25.1663 16.0011 25.1663C12.9554 25.1663 10.4865 26.6022 10.4865 28.3735C10.4865 30.1449 12.9554 31.5808 16.0011 31.5808Z" fill="#E6007A"/>
<path d="M8.31642 11.8547C9.83923 9.21718 9.82935 6.36059 8.29434 5.47433C6.75934 4.58807 4.28048 6.00774 2.75767 8.64525C1.23485 11.2828 1.24474 14.1394 2.77974 15.0256C4.31475 15.9119 6.7936 14.4922 8.31642 11.8547Z" fill="#E6007A"/>
<path d="M29.2409 23.9355C30.7637 21.298 30.7547 18.4419 29.2207 17.5563C27.6867 16.6706 25.2087 18.0907 23.6859 20.7283C22.1631 23.3658 22.1721 26.2219 23.7061 27.1075C25.2401 27.9932 27.7181 26.5731 29.2409 23.9355Z" fill="#E6007A"/>
<path d="M8.29398 27.1067C9.82898 26.2205 9.83887 23.3639 8.31605 20.7264C6.79324 18.0888 4.31438 16.6692 2.77938 17.5554C1.24437 18.4417 1.23449 21.2983 2.7573 23.9358C4.28012 26.5733 6.75897 27.993 8.29398 27.1067Z" fill="#E6007A"/>
<path d="M29.2224 15.0263C30.7564 14.1406 30.7654 11.2845 29.2426 8.64698C27.7198 6.00947 25.2418 4.58931 23.7078 5.47498C22.1738 6.36064 22.1648 9.21674 23.6876 11.8543C25.2104 14.4918 27.6884 15.9119 29.2224 15.0263Z" fill="#E6007A"/>
</svg>
