<svg width="32" height="33" viewBox="0 0 32 33" fill="none" xmlns="http://www.w3.org/2000/svg">
<path d="M25.2506 10.9706C25.1771 11.0511 25.0851 11.1137 24.984 11.1494C24.8828 11.1941 24.7725 11.212 24.6622 11.212H3.83548C3.09988 11.212 2.72288 10.318 3.2378 9.78161L6.65835 6.25032C6.73191 6.16986 6.82386 6.10728 6.9342 6.06258C7.03534 6.01788 7.14568 6 7.25602 6H28.1655C28.9102 6 29.2781 6.90294 28.7539 7.43934L25.2506 10.9706ZM25.2506 26.7586C25.0943 26.9106 24.8828 27 24.6622 27H3.83548C3.09988 27 2.72288 26.1239 3.2378 25.6054L6.65835 22.1545C6.73191 22.0741 6.83305 22.0115 6.9342 21.9757C7.03534 21.931 7.14568 21.9132 7.25602 21.9132H28.1655C28.9102 21.9132 29.2781 22.7982 28.7539 23.3167L25.2506 26.7586ZM25.2506 14.198C25.0943 14.046 24.8828 13.9566 24.6622 13.9566H3.83548C3.09988 13.9566 2.72288 14.8327 3.2378 15.3512L6.65835 18.802C6.73191 18.8825 6.83305 18.9451 6.9342 18.9808C7.03534 19.0255 7.14568 19.0434 7.25602 19.0434H28.1655C28.9102 19.0434 29.2781 18.1584 28.7539 17.6398L25.2506 14.198Z" fill="url(#paint0_linear_1_265)"/>
<defs>
<linearGradient id="paint0_linear_1_265" x1="4.58985" y1="27.2621" x2="26.7184" y2="5.10358" gradientUnits="userSpaceOnUse">
<stop stop-color="#CF41E8"/>
<stop offset="1" stop-color="#10F2B0"/>
</linearGradient>
</defs>
</svg>
