<svg width="50" height="51" viewBox="0 0 50 51" fill="none" xmlns="http://www.w3.org/2000/svg">
<g clip-path="url(#clip0_1_694)">
<path d="M40.0967 9.24268H9.61963V36.961H40.0967V9.24268Z" fill="white"/>
<path fill-rule="evenodd" clip-rule="evenodd" d="M49.539 25.4666C49.539 39.0883 38.4966 50.1306 24.8749 50.1306C11.2533 50.1306 0.210815 39.0883 0.210815 25.4666C0.210815 11.845 11.2533 0.80249 24.8749 0.80249C38.4966 0.80249 49.539 11.845 49.539 25.4666ZM17.8858 35.2816H13.0992C12.0934 35.2816 11.5966 35.2816 11.2936 35.0878C10.9664 34.8757 10.7665 34.5243 10.7422 34.1364C10.724 33.7791 10.9725 33.3427 11.4693 32.4702L23.288 11.6381C23.791 10.7535 24.0454 10.3112 24.3665 10.1476C24.7119 9.97188 25.1239 9.97188 25.4693 10.1476C25.7904 10.3112 26.0449 10.7535 26.5478 11.6381L28.9775 15.8794L28.9898 15.901C29.533 16.8501 29.8085 17.3313 29.9287 17.8364C30.062 18.3878 30.062 18.9695 29.9287 19.5208C29.8075 20.0298 29.5349 20.5145 28.9835 21.4779L22.7754 32.452L22.7594 32.4802C22.2126 33.437 21.9355 33.922 21.5515 34.2878C21.1334 34.6878 20.6305 34.9785 20.0792 35.1424C19.5763 35.2816 19.0128 35.2816 17.8858 35.2816ZM29.9736 35.2816H36.8322C37.8441 35.2816 38.3531 35.2816 38.6562 35.0819C38.9833 34.8698 39.1892 34.5121 39.2076 34.1246C39.225 33.7788 38.982 33.3594 38.5058 32.5376C38.4894 32.5096 38.473 32.4811 38.4562 32.4522L35.0207 26.575L34.9816 26.5088C34.4988 25.6924 34.2551 25.2802 33.9421 25.1208C33.597 24.9451 33.1907 24.9451 32.8455 25.1208C32.5304 25.2844 32.276 25.7146 31.7731 26.581L28.3497 32.4583L28.338 32.4785C27.8369 33.3435 27.5864 33.7758 27.6045 34.1305C27.6287 34.5184 27.8287 34.8757 28.1558 35.0878C28.4528 35.2816 28.9617 35.2816 29.9736 35.2816Z" fill="#E84142"/>
</g>
<defs>
<clipPath id="clip0_1_694">
<rect width="49.361" height="49.3938" fill="white" transform="translate(0.194214 0.769531)"/>
</clipPath>
</defs>
</svg>
