<svg width="440" height="233" viewBox="0 0 440 233" fill="none" xmlns="http://www.w3.org/2000/svg">
<g opacity="0.05">
<path d="M120.749 7.05633C138.874 -23.6158 163.668 -50.2329 193.421 -70.959C223.174 -91.6851 257.178 -106.027 293.087 -112.995C328.996 -119.964 365.956 -119.393 401.418 -111.323C436.88 -103.252 469.999 -87.8736 498.492 -66.248L426.851 20.1668C411.254 8.32897 393.124 -0.0891761 373.713 -4.50703C354.301 -8.92489 334.069 -9.23731 314.412 -5.42276C294.756 -1.6082 276.142 6.24255 259.855 17.588C243.568 28.9335 229.996 43.5036 220.074 60.2935L120.749 7.05633Z" fill="white"/>
<path d="M541.638 222.744C522.359 252.771 496.574 278.508 466.061 298.18C435.548 317.853 401.033 330.992 364.898 336.693C328.762 342.394 291.866 340.52 256.753 331.201C221.641 321.881 189.148 305.338 161.516 282.713L236.385 198.843C251.51 211.228 269.297 220.284 288.518 225.385C307.738 230.487 327.935 231.512 347.716 228.392C367.496 225.271 386.389 218.078 403.092 207.31C419.795 196.541 433.91 182.453 444.463 166.016L541.638 222.744Z" fill="white"/>
<path d="M276.731 124.13L155.516 252.348L123.592 36.486L276.731 124.13Z" fill="white"/>
<path d="M208.138 134.274L86.9228 262.492L54.9987 46.6303L208.138 134.274Z" fill="white"/>
</g>
</svg>
