<svg width="38" height="39" viewBox="0 0 38 39" fill="none" xmlns="http://www.w3.org/2000/svg">
<g filter="url(#filter0_d_1_133)">
<path d="M5.87524 16.0797C10.2189 16.0797 18.2549 14.7544 18.5614 2.72103C18.5573 2.47156 18.5606 2.23176 18.5704 2.00333C18.5704 2.24669 18.5673 2.4859 18.5614 2.72103C18.6384 7.48665 21.3781 15.7802 32.1512 15.7802C27.9523 15.9739 19.6815 18.9462 19.1843 29.1762C19.1887 29.5204 19.1802 29.8484 19.1609 30.1562C19.1609 29.8223 19.1688 29.4957 19.1843 29.1762C19.1226 24.2732 16.4686 16.0797 5.87524 16.0797Z" fill="url(#paint0_linear_1_133)"/>
</g>
<defs>
<filter id="filter0_d_1_133" x="0.870317" y="0.752095" width="36.2859" height="38.1627" filterUnits="userSpaceOnUse" color-interpolation-filters="sRGB">
<feFlood flood-opacity="0" result="BackgroundImageFix"/>
<feColorMatrix in="SourceAlpha" type="matrix" values="0 0 0 0 0 0 0 0 0 0 0 0 0 0 0 0 0 0 127 0" result="hardAlpha"/>
<feOffset dy="3.7537"/>
<feGaussianBlur stdDeviation="2.50246"/>
<feComposite in2="hardAlpha" operator="out"/>
<feColorMatrix type="matrix" values="0 0 0 0 0 0 0 0 0 0 0 0 0 0 0 0 0 0 0.25 0"/>
<feBlend mode="normal" in2="BackgroundImageFix" result="effect1_dropShadow_1_133"/>
<feBlend mode="normal" in="SourceGraphic" in2="effect1_dropShadow_1_133" result="shape"/>
</filter>
<linearGradient id="paint0_linear_1_133" x1="10.2546" y1="8.25951" x2="21.8285" y2="21.3975" gradientUnits="userSpaceOnUse">
<stop offset="0.396817" stop-color="#EAEAEA"/>
<stop offset="1" stop-color="#5F5F5F"/>
</linearGradient>
</defs>
</svg>
