<svg width="228" height="145" viewBox="0 0 228 145" fill="none" xmlns="http://www.w3.org/2000/svg">
<rect x="0.405634" y="1.25427" width="226.749" height="143.189" rx="11.7634" fill="#000510" stroke="url(#paint0_linear_1_47)" stroke-width="0.811267"/>
<mask id="mask0_1_47" style="mask-type:alpha" maskUnits="userSpaceOnUse" x="0" y="0" width="228" height="145">
<rect y="0.848633" width="227.561" height="144" rx="12.169" fill="#07051B"/>
</mask>
<g mask="url(#mask0_1_47)">
<g filter="url(#filter0_f_1_47)">
<ellipse cx="94.8415" cy="-84.7421" rx="95.1685" ry="86.8082" transform="rotate(-151.083 94.8415 -84.7421)" fill="#42FF00"/>
</g>
<g filter="url(#filter1_f_1_47)">
<ellipse cx="192.059" cy="-51.5111" rx="95.1685" ry="86.8082" transform="rotate(-151.083 192.059 -51.5111)" fill="#FFF500"/>
</g>
<g filter="url(#filter2_f_1_47)">
<ellipse cx="223.089" cy="16.3614" rx="90.8251" ry="58.7872" transform="rotate(-140.542 223.089 16.3614)" fill="#3BC3EE"/>
</g>
<g filter="url(#filter3_f_1_47)">
<path d="M119.642 -78.2365C185.864 -36.9567 171.366 38.9231 196.099 50.1982C227.19 64.3716 254.938 1.01348 243.363 -35.3615C229.719 -78.2377 74.7637 -106.211 119.642 -78.2365Z" fill="#3FF35C"/>
</g>
<g filter="url(#filter4_f_1_47)">
<path d="M224.041 21.4108C244.99 32.9831 260.991 27.2832 269.289 12.2611C286.605 -19.0843 107.84 -132.382 65.3962 -121.711C34.204 -113.868 21.8996 -85.3594 38.2867 -63.7705C56.8056 -39.373 54.3345 -37.6579 83.1605 -32.9334C107.212 -28.9914 136.215 -27.8207 161.634 -21.6593C185.426 -15.8921 205.433 11.1315 224.041 21.4108Z" fill="#243402"/>
</g>
<g filter="url(#filter5_di_1_47)">
<path d="M15.4058 124.725C15.0434 124.725 14.727 124.657 14.4566 124.522C14.1916 124.382 13.9861 124.181 13.8401 123.922C13.694 123.657 13.621 123.338 13.621 122.965H14.5945C14.5945 123.143 14.6216 123.3 14.6757 123.435C14.7297 123.57 14.8136 123.676 14.9272 123.752C15.0461 123.822 15.1976 123.857 15.3815 123.857C15.5653 123.857 15.7114 123.822 15.8195 123.752C15.9277 123.681 16.0061 123.584 16.0548 123.459C16.1089 123.33 16.1359 123.181 16.1359 123.013V118.949H17.1095V123.013C17.1095 123.565 16.9553 123.989 16.647 124.287C16.3442 124.579 15.9304 124.725 15.4058 124.725ZM19.9675 124.725C19.5781 124.725 19.2266 124.636 18.9129 124.457C18.6046 124.273 18.3612 124.022 18.1827 123.703C18.0097 123.378 17.9231 123.008 17.9231 122.591C17.9231 122.164 18.0124 121.791 18.1909 121.472C18.3693 121.147 18.6127 120.896 18.921 120.717C19.2347 120.533 19.5862 120.442 19.9756 120.442C20.3651 120.442 20.7139 120.533 21.0222 120.717C21.3359 120.896 21.5792 121.145 21.7523 121.464C21.9308 121.783 22.02 122.156 22.02 122.583C22.02 123.011 21.9308 123.384 21.7523 123.703C21.5738 124.022 21.3278 124.273 21.0141 124.457C20.7058 124.636 20.3569 124.725 19.9675 124.725ZM19.9675 123.889C20.1622 123.889 20.338 123.841 20.4949 123.743C20.6571 123.646 20.7869 123.5 20.8843 123.305C20.9816 123.111 21.0303 122.87 21.0303 122.583C21.0303 122.297 20.9816 122.059 20.8843 121.869C20.7923 121.675 20.6652 121.529 20.503 121.431C20.3461 121.334 20.1703 121.285 19.9756 121.285C19.7863 121.285 19.6106 121.334 19.4483 121.431C19.2861 121.529 19.1563 121.675 19.0589 121.869C18.9616 122.059 18.9129 122.297 18.9129 122.583C18.9129 122.87 18.9616 123.111 19.0589 123.305C19.1563 123.5 19.2834 123.646 19.4402 123.743C19.6025 123.841 19.7782 123.889 19.9675 123.889ZM22.8108 124.628V118.787H23.7843V121.172C23.9195 120.95 24.1034 120.774 24.336 120.644C24.5685 120.509 24.8308 120.442 25.1229 120.442C25.4582 120.442 25.7421 120.512 25.9747 120.652C26.2073 120.788 26.383 120.991 26.502 121.261C26.6264 121.526 26.6886 121.859 26.6886 122.259V124.628H25.7232V122.348C25.7232 121.996 25.6475 121.729 25.4961 121.545C25.35 121.361 25.1256 121.269 24.8227 121.269C24.628 121.269 24.4522 121.318 24.2954 121.415C24.1385 121.507 24.0141 121.642 23.9222 121.821C23.8303 121.994 23.7843 122.207 23.7843 122.462V124.628H22.8108ZM27.5605 124.628V120.539H28.4204L28.4934 121.22C28.6178 120.982 28.7963 120.793 29.0289 120.652C29.2614 120.512 29.5373 120.442 29.8564 120.442C30.1863 120.442 30.4675 120.512 30.7001 120.652C30.9327 120.788 31.1111 120.988 31.2355 121.253C31.3653 121.518 31.4302 121.848 31.4302 122.243V124.628H30.4567V122.332C30.4567 121.991 30.381 121.729 30.2296 121.545C30.0781 121.361 29.8537 121.269 29.5562 121.269C29.3615 121.269 29.1857 121.315 29.0289 121.407C28.8774 121.499 28.7558 121.634 28.6638 121.813C28.5773 121.986 28.534 122.197 28.534 122.445V124.628H27.5605ZM36.6682 124.725C36.1058 124.725 35.619 124.603 35.2079 124.36C34.8023 124.111 34.4886 123.768 34.2669 123.33C34.0505 122.886 33.9424 122.375 33.9424 121.796C33.9424 121.212 34.0505 120.701 34.2669 120.263C34.4886 119.82 34.8023 119.473 35.2079 119.225C35.619 118.976 36.1058 118.851 36.6682 118.851C37.3443 118.851 37.8959 119.019 38.3232 119.354C38.7505 119.684 39.0209 120.152 39.1345 120.758H38.0636C37.9879 120.439 37.8337 120.187 37.6012 120.003C37.3686 119.82 37.0549 119.728 36.6601 119.728C36.3032 119.728 35.9949 119.811 35.7353 119.979C35.4811 120.141 35.2837 120.379 35.143 120.693C35.0078 121.001 34.9402 121.369 34.9402 121.796C34.9402 122.224 35.0078 122.591 35.143 122.9C35.2837 123.203 35.4811 123.438 35.7353 123.605C35.9949 123.768 36.3032 123.849 36.6601 123.849C37.0549 123.849 37.3686 123.765 37.6012 123.597C37.8337 123.424 37.9879 123.186 38.0636 122.883H39.1345C39.0263 123.457 38.7559 123.908 38.3232 124.238C37.8959 124.563 37.3443 124.725 36.6682 124.725ZM41.2553 124.725C40.92 124.725 40.6415 124.668 40.4197 124.555C40.198 124.441 40.033 124.29 39.9248 124.1C39.8167 123.911 39.7626 123.706 39.7626 123.484C39.7626 123.224 39.8275 123 39.9573 122.81C40.0925 122.621 40.2899 122.475 40.5495 122.372C40.8091 122.264 41.1282 122.21 41.5068 122.21H42.5371C42.5371 121.994 42.5074 121.815 42.4479 121.675C42.3884 121.529 42.2964 121.42 42.172 121.35C42.0476 121.28 41.8881 121.245 41.6934 121.245C41.4716 121.245 41.2824 121.296 41.1255 121.399C40.9687 121.496 40.8713 121.648 40.8335 121.853H39.8762C39.9086 121.561 40.006 121.312 40.1682 121.107C40.3305 120.896 40.5441 120.734 40.8091 120.62C41.0795 120.501 41.3743 120.442 41.6934 120.442C42.0774 120.442 42.4046 120.509 42.675 120.644C42.9455 120.774 43.151 120.963 43.2916 121.212C43.4376 121.456 43.5106 121.75 43.5106 122.097V124.628H42.6831L42.5858 123.971C42.5317 124.079 42.4614 124.179 42.3749 124.271C42.2937 124.363 42.1991 124.444 42.0909 124.514C41.9827 124.579 41.8584 124.63 41.7177 124.668C41.5825 124.706 41.4284 124.725 41.2553 124.725ZM41.4744 123.954C41.6312 123.954 41.7691 123.927 41.8881 123.873C42.0125 123.814 42.118 123.733 42.2045 123.63C42.2964 123.522 42.3667 123.403 42.4154 123.273C42.4641 123.143 42.4966 123.005 42.5128 122.859V122.843H41.6123C41.423 122.843 41.2661 122.867 41.1417 122.916C41.0173 122.959 40.9281 123.024 40.874 123.111C40.8199 123.197 40.7929 123.297 40.7929 123.411C40.7929 123.524 40.8199 123.622 40.874 123.703C40.9281 123.784 41.0065 123.846 41.1093 123.889C41.212 123.933 41.3337 123.954 41.4744 123.954ZM44.3886 124.628V120.539H45.2566L45.3459 121.301C45.4432 121.123 45.5649 120.972 45.7109 120.847C45.857 120.717 46.0273 120.617 46.222 120.547C46.4222 120.477 46.6412 120.442 46.8792 120.442V121.472H46.5384C46.3762 121.472 46.222 121.493 46.076 121.537C45.93 121.575 45.8029 121.64 45.6947 121.731C45.592 121.818 45.5108 121.94 45.4513 122.097C45.3918 122.248 45.3621 122.44 45.3621 122.673V124.628H44.3886ZM49.2275 124.628C48.9516 124.628 48.711 124.584 48.5054 124.498C48.3053 124.411 48.1485 124.268 48.0349 124.068C47.9213 123.868 47.8645 123.597 47.8645 123.257V121.358H47.1669V120.539H47.8645L47.9781 119.46H48.8381V120.539H49.9495V121.358H48.8381V123.257C48.8381 123.462 48.8813 123.605 48.9679 123.687C49.0598 123.762 49.2112 123.8 49.4222 123.8H49.9252V124.628H49.2275ZM52.5148 124.725C52.1091 124.725 51.7522 124.639 51.4439 124.465C51.1356 124.287 50.8949 124.038 50.7219 123.719C50.5488 123.4 50.4622 123.032 50.4622 122.616C50.4622 122.183 50.5461 121.804 50.7137 121.48C50.8868 121.155 51.1275 120.901 51.4358 120.717C51.7495 120.533 52.1118 120.442 52.5229 120.442C52.9231 120.442 53.2719 120.531 53.5694 120.709C53.8669 120.888 54.0967 121.128 54.259 121.431C54.4212 121.729 54.5024 122.064 54.5024 122.437C54.5024 122.491 54.5024 122.551 54.5024 122.616C54.5024 122.681 54.497 122.748 54.4861 122.819H51.1599V122.194H53.5207C53.5099 121.896 53.4099 121.664 53.2206 121.496C53.0313 121.323 52.796 121.237 52.5148 121.237C52.3146 121.237 52.1308 121.283 51.9631 121.375C51.7954 121.466 51.6629 121.604 51.5656 121.788C51.4682 121.967 51.4195 122.194 51.4195 122.47V122.705C51.4195 122.959 51.4655 123.178 51.5575 123.362C51.6548 123.546 51.7846 123.687 51.9469 123.784C52.1145 123.876 52.3011 123.922 52.5066 123.922C52.7338 123.922 52.9204 123.873 53.0664 123.776C53.2179 123.679 53.3287 123.549 53.399 123.386H54.3888C54.3131 123.641 54.1887 123.871 54.0156 124.076C53.8425 124.276 53.6289 124.436 53.3747 124.555C53.1205 124.668 52.8339 124.725 52.5148 124.725ZM55.239 124.628V120.539H56.107L56.1963 121.301C56.2936 121.123 56.4153 120.972 56.5613 120.847C56.7074 120.717 56.8777 120.617 57.0724 120.547C57.2725 120.477 57.4916 120.442 57.7296 120.442V121.472H57.3888C57.2266 121.472 57.0724 121.493 56.9264 121.537C56.7804 121.575 56.6533 121.64 56.5451 121.731C56.4423 121.818 56.3612 121.94 56.3017 122.097C56.2422 122.248 56.2125 122.44 56.2125 122.673V124.628H55.239Z" fill="white"/>
</g>
<path d="M15.2415 112.791C14.8967 112.791 14.5986 112.7 14.3471 112.518C14.0997 112.335 13.909 112.08 13.7752 111.751C13.6453 111.422 13.5804 111.035 13.5804 110.589C13.5804 110.147 13.6453 109.761 13.7752 109.433C13.909 109.1 14.0997 108.843 14.3471 108.66C14.5986 108.478 14.8967 108.386 15.2415 108.386C15.6796 108.386 16.0325 108.508 16.3002 108.751C16.5679 108.991 16.7241 109.311 16.7687 109.713H16.2029C16.1623 109.473 16.0609 109.273 15.8986 109.11C15.7364 108.948 15.5173 108.867 15.2415 108.867C14.8886 108.867 14.6108 109.021 14.4079 109.329C14.2051 109.634 14.1037 110.053 14.1037 110.589C14.1037 111.128 14.2051 111.55 14.4079 111.854C14.6108 112.159 14.8886 112.311 15.2415 112.311C15.5295 112.311 15.7506 112.234 15.9047 112.08C16.0629 111.925 16.1623 111.727 16.2029 111.483H16.7687C16.7038 111.889 16.5416 112.209 16.282 112.445C16.0264 112.676 15.6796 112.791 15.2415 112.791ZM17.4782 112.718L18.8107 108.459H19.4009L20.7274 112.718H20.1676L19.8573 111.66H18.3483L18.038 112.718H17.4782ZM19.0906 109.177L18.4761 111.234H19.7295L19.115 109.177H19.0906ZM21.6681 112.718V108.459H22.9763C23.3048 108.459 23.5746 108.514 23.7855 108.624C24.0005 108.733 24.1607 108.883 24.2662 109.074C24.3716 109.26 24.4244 109.473 24.4244 109.713C24.4244 109.993 24.3514 110.24 24.2053 110.455C24.0634 110.666 23.8443 110.814 23.5482 110.899L24.473 112.718H23.8646L23.0067 110.972H22.9763H22.1792V112.718H21.6681ZM22.1792 110.504H22.958C23.2825 110.504 23.5198 110.431 23.6699 110.285C23.824 110.135 23.9011 109.944 23.9011 109.713C23.9011 109.469 23.8261 109.277 23.676 109.135C23.5299 108.993 23.2886 108.922 22.9519 108.922H22.1792V110.504ZM25.4624 112.718V108.459H26.3569C27.0546 108.459 27.5697 108.65 27.9023 109.031C28.239 109.413 28.4073 109.932 28.4073 110.589C28.4073 111.246 28.239 111.765 27.9023 112.147C27.5697 112.528 27.0546 112.718 26.3569 112.718H25.4624ZM25.9735 112.25H26.3447C26.7179 112.25 27.016 112.181 27.2391 112.043C27.4663 111.905 27.6306 111.712 27.732 111.465C27.8334 111.218 27.8841 110.926 27.8841 110.589C27.8841 110.252 27.8334 109.96 27.732 109.713C27.6306 109.465 27.4663 109.273 27.2391 109.135C27.016 108.997 26.7179 108.928 26.3447 108.928H25.9735V112.25ZM33.1303 112.718V108.459H33.6413V110.297H35.704V108.459H36.2151V112.718H35.704V110.759H33.6413V112.718H33.1303ZM38.5613 112.791C38.2165 112.791 37.9204 112.7 37.673 112.518C37.4256 112.335 37.2349 112.08 37.1011 111.751C36.9713 111.418 36.9064 111.031 36.9064 110.589C36.9064 110.147 36.9713 109.761 37.1011 109.433C37.2349 109.1 37.4256 108.843 37.673 108.66C37.9204 108.478 38.2165 108.386 38.5613 108.386C38.9061 108.386 39.2022 108.478 39.4497 108.66C39.6971 108.843 39.8857 109.1 40.0155 109.433C40.1494 109.761 40.2163 110.147 40.2163 110.589C40.2163 111.031 40.1494 111.418 40.0155 111.751C39.8857 112.08 39.6971 112.335 39.4497 112.518C39.2022 112.7 38.9061 112.791 38.5613 112.791ZM38.5613 112.311C38.898 112.311 39.1698 112.161 39.3767 111.861C39.5876 111.56 39.6931 111.136 39.6931 110.589C39.6931 110.041 39.5876 109.617 39.3767 109.317C39.1698 109.017 38.898 108.867 38.5613 108.867C38.2206 108.867 37.9468 109.017 37.7399 109.317C37.5331 109.617 37.4296 110.041 37.4296 110.589C37.4296 111.136 37.5331 111.56 37.7399 111.861C37.9468 112.161 38.2206 112.311 38.5613 112.311ZM41.157 112.718V108.459H41.6681V112.256H43.8281V112.718H41.157ZM44.921 112.718V108.459H45.8154C46.5131 108.459 47.0282 108.65 47.3609 109.031C47.6975 109.413 47.8659 109.932 47.8659 110.589C47.8659 111.246 47.6975 111.765 47.3609 112.147C47.0282 112.528 46.5131 112.718 45.8154 112.718H44.921ZM45.4321 112.25H45.8032C46.1764 112.25 46.4746 112.181 46.6977 112.043C46.9248 111.905 47.0891 111.712 47.1905 111.465C47.2919 111.218 47.3426 110.926 47.3426 110.589C47.3426 110.252 47.2919 109.96 47.1905 109.713C47.0891 109.465 46.9248 109.273 46.6977 109.135C46.4746 108.997 46.1764 108.928 45.8032 108.928H45.4321V112.25ZM48.9344 112.718V108.459H51.5933V108.922H49.4455V110.339H51.4108V110.802H49.4455V112.256H51.5933V112.718H48.9344ZM52.8017 112.718V108.459H54.1099C54.4385 108.459 54.7082 108.514 54.9192 108.624C55.1341 108.733 55.2944 108.883 55.3998 109.074C55.5053 109.26 55.558 109.473 55.558 109.713C55.558 109.993 55.485 110.24 55.339 110.455C55.197 110.666 54.978 110.814 54.6819 110.899L55.6067 112.718H54.9983L54.1403 110.972H54.1099H53.3128V112.718H52.8017ZM53.3128 110.504H54.0917C54.4162 110.504 54.6535 110.431 54.8035 110.285C54.9577 110.135 55.0348 109.944 55.0348 109.713C55.0348 109.469 54.9597 109.277 54.8096 109.135C54.6636 108.993 54.4223 108.922 54.0856 108.922H53.3128V110.504ZM60.433 112.718V108.459H60.9563L62.8912 111.824V108.459H63.3962V112.718H62.8669L60.932 109.354V112.718H60.433ZM64.1787 112.718L65.5112 108.459H66.1014L67.4279 112.718H66.8681L66.5578 111.66H65.0488L64.7385 112.718H64.1787ZM65.7911 109.177L65.1766 111.234H66.43L65.8155 109.177H65.7911ZM68.1739 112.718V108.459H68.7215L69.695 110.485L70.6685 108.459H71.2161V112.718H70.7172V109.445L69.8897 111.167H69.5003L68.6728 109.451V112.718H68.1739ZM72.2846 112.718V108.459H74.9435V108.922H72.7957V110.339H74.761V110.802H72.7957V112.256H74.9435V112.718H72.2846Z" fill="white" fill-opacity="0.6"/>
<path d="M104.771 112.718V108.459H107.43V108.922H105.282V110.339H107.247V110.802H105.282V112.256H107.43V112.718H104.771ZM108.145 112.718L109.429 110.589L108.145 108.459H108.73L109.734 110.126L110.713 108.459H111.297L110.007 110.583L111.297 112.718H110.713L109.703 111.045L108.73 112.718H108.145ZM111.995 112.718V108.459H113.412C113.737 108.459 114.002 108.518 114.209 108.636C114.416 108.753 114.568 108.91 114.666 109.104C114.763 109.299 114.812 109.514 114.812 109.749C114.812 109.984 114.763 110.199 114.666 110.394C114.568 110.589 114.416 110.745 114.209 110.863C114.002 110.98 113.737 111.039 113.412 111.039H112.506V112.718H111.995ZM112.506 110.571H113.4C113.7 110.571 113.923 110.496 114.069 110.345C114.215 110.191 114.288 109.993 114.288 109.749C114.288 109.506 114.215 109.307 114.069 109.153C113.923 108.999 113.7 108.922 113.4 108.922H112.506V110.571ZM115.795 112.718V112.274H116.762V108.903H115.795V108.459H118.241V108.903H117.274V112.274H118.241V112.718H115.795ZM119.34 112.718V108.459H120.648C120.977 108.459 121.246 108.514 121.457 108.624C121.672 108.733 121.833 108.883 121.938 109.074C122.043 109.26 122.096 109.473 122.096 109.713C122.096 109.993 122.023 110.24 121.877 110.455C121.735 110.666 121.516 110.814 121.22 110.899L122.145 112.718H121.536L120.679 110.972H120.648H119.851V112.718H119.34ZM119.851 110.504H120.63C120.954 110.504 121.192 110.431 121.342 110.285C121.496 110.135 121.573 109.944 121.573 109.713C121.573 109.469 121.498 109.277 121.348 109.135C121.202 108.993 120.96 108.922 120.624 108.922H119.851V110.504ZM124.059 112.718V111.045L122.678 108.459H123.256L124.315 110.528L125.373 108.459H125.951L124.57 111.045V112.718H124.059ZM130.188 112.718V108.459H131.082C131.78 108.459 132.295 108.65 132.627 109.031C132.964 109.413 133.132 109.932 133.132 110.589C133.132 111.246 132.964 111.765 132.627 112.147C132.295 112.528 131.78 112.718 131.082 112.718H130.188ZM130.699 112.25H131.07C131.443 112.25 131.741 112.181 131.964 112.043C132.191 111.905 132.356 111.712 132.457 111.465C132.558 111.218 132.609 110.926 132.609 110.589C132.609 110.252 132.558 109.96 132.457 109.713C132.356 109.465 132.191 109.273 131.964 109.135C131.741 108.997 131.443 108.928 131.07 108.928H130.699V112.25ZM133.635 112.718L134.968 108.459H135.558L136.884 112.718H136.324L136.014 111.66H134.505L134.195 112.718H133.635ZM135.247 109.177L134.633 111.234H135.886L135.272 109.177H135.247ZM138.652 112.718V108.922H137.509V108.459H140.307V108.922H139.164V112.718H138.652ZM141.254 112.718V108.459H143.913V108.922H141.765V110.339H143.731V110.802H141.765V112.256H143.913V112.718H141.254Z" fill="white" fill-opacity="0.6"/>
<g filter="url(#filter6_di_1_47)">
<path d="M107.087 124.552C106.573 124.552 106.133 124.43 105.765 124.187C105.397 123.938 105.113 123.594 104.913 123.156C104.718 122.713 104.621 122.199 104.621 121.615C104.621 121.031 104.718 120.52 104.913 120.081C105.113 119.638 105.397 119.295 105.765 119.051C106.133 118.802 106.573 118.678 107.087 118.678C107.596 118.678 108.031 118.802 108.393 119.051C108.761 119.295 109.042 119.638 109.237 120.081C109.437 120.52 109.537 121.031 109.537 121.615C109.537 122.199 109.437 122.713 109.237 123.156C109.042 123.594 108.761 123.938 108.393 124.187C108.031 124.43 107.596 124.552 107.087 124.552ZM107.079 123.675C107.366 123.675 107.62 123.594 107.842 123.432C108.063 123.264 108.234 123.026 108.353 122.718C108.477 122.41 108.539 122.042 108.539 121.615C108.539 121.188 108.477 120.82 108.353 120.511C108.234 120.203 108.063 119.968 107.842 119.806C107.62 119.638 107.366 119.554 107.079 119.554C106.792 119.554 106.538 119.638 106.316 119.806C106.095 119.968 105.922 120.203 105.797 120.511C105.678 120.82 105.619 121.188 105.619 121.615C105.619 122.042 105.678 122.41 105.797 122.718C105.922 123.026 106.095 123.264 106.316 123.432C106.538 123.594 106.792 123.675 107.079 123.675ZM110.465 124.454V123.748C110.827 123.462 111.174 123.175 111.504 122.888C111.833 122.602 112.131 122.318 112.396 122.037C112.661 121.755 112.869 121.48 113.021 121.209C113.172 120.939 113.248 120.679 113.248 120.43C113.248 120.268 113.218 120.117 113.159 119.976C113.099 119.835 113.004 119.722 112.875 119.635C112.75 119.549 112.583 119.505 112.372 119.505C112.166 119.505 111.99 119.551 111.844 119.643C111.704 119.735 111.598 119.86 111.528 120.017C111.458 120.168 111.422 120.341 111.422 120.536H110.481C110.492 120.125 110.581 119.781 110.749 119.505C110.917 119.23 111.144 119.024 111.431 118.889C111.717 118.748 112.039 118.678 112.396 118.678C112.78 118.678 113.107 118.748 113.378 118.889C113.648 119.03 113.856 119.227 114.002 119.481C114.148 119.735 114.221 120.036 114.221 120.382C114.221 120.636 114.173 120.887 114.075 121.136C113.983 121.38 113.853 121.617 113.686 121.85C113.518 122.077 113.329 122.299 113.118 122.515C112.912 122.726 112.699 122.929 112.477 123.124C112.255 123.313 112.042 123.489 111.836 123.651H114.375V124.454H110.465ZM115.066 125.33L117.102 118.167H118.052L116.015 125.33H115.066ZM120.549 124.552C120.181 124.552 119.846 124.487 119.543 124.357C119.24 124.222 118.997 124.019 118.813 123.748C118.634 123.473 118.54 123.126 118.529 122.71H119.486C119.492 122.899 119.535 123.072 119.616 123.229C119.703 123.381 119.824 123.502 119.981 123.594C120.138 123.681 120.327 123.724 120.549 123.724C120.76 123.724 120.938 123.684 121.084 123.602C121.236 123.521 121.349 123.41 121.425 123.27C121.501 123.129 121.539 122.972 121.539 122.799C121.539 122.588 121.487 122.415 121.385 122.28C121.282 122.139 121.141 122.034 120.963 121.964C120.784 121.893 120.581 121.858 120.354 121.858H119.932V121.055H120.354C120.652 121.055 120.895 120.987 121.084 120.852C121.274 120.712 121.368 120.509 121.368 120.244C121.368 120.022 121.295 119.844 121.149 119.708C121.009 119.573 120.806 119.505 120.541 119.505C120.265 119.505 120.046 119.587 119.884 119.749C119.727 119.911 119.64 120.111 119.624 120.349H118.667C118.683 120.008 118.77 119.714 118.926 119.465C119.089 119.211 119.308 119.016 119.584 118.881C119.859 118.746 120.181 118.678 120.549 118.678C120.933 118.678 121.258 118.746 121.523 118.881C121.788 119.016 121.988 119.197 122.123 119.424C122.264 119.652 122.334 119.9 122.334 120.171C122.334 120.382 122.293 120.574 122.212 120.747C122.131 120.92 122.02 121.066 121.88 121.185C121.744 121.298 121.585 121.382 121.401 121.436C121.612 121.48 121.798 121.563 121.961 121.688C122.128 121.812 122.258 121.972 122.35 122.166C122.447 122.356 122.496 122.577 122.496 122.832C122.496 123.14 122.42 123.427 122.269 123.692C122.123 123.951 121.904 124.159 121.612 124.316C121.325 124.473 120.971 124.552 120.549 124.552ZM125.99 124.552C125.476 124.552 125.035 124.43 124.667 124.187C124.3 123.938 124.016 123.594 123.815 123.156C123.621 122.713 123.523 122.199 123.523 121.615C123.523 121.031 123.621 120.52 123.815 120.081C124.016 119.638 124.3 119.295 124.667 119.051C125.035 118.802 125.476 118.678 125.99 118.678C126.498 118.678 126.933 118.802 127.296 119.051C127.664 119.295 127.945 119.638 128.14 120.081C128.34 120.52 128.44 121.031 128.44 121.615C128.44 122.199 128.34 122.713 128.14 123.156C127.945 123.594 127.664 123.938 127.296 124.187C126.933 124.43 126.498 124.552 125.99 124.552ZM125.982 123.675C126.268 123.675 126.522 123.594 126.744 123.432C126.966 123.264 127.136 123.026 127.255 122.718C127.38 122.41 127.442 122.042 127.442 121.615C127.442 121.188 127.38 120.82 127.255 120.511C127.136 120.203 126.966 119.968 126.744 119.806C126.522 119.638 126.268 119.554 125.982 119.554C125.695 119.554 125.441 119.638 125.219 119.806C124.997 119.968 124.824 120.203 124.7 120.511C124.581 120.82 124.521 121.188 124.521 121.615C124.521 122.042 124.581 122.41 124.7 122.718C124.824 123.026 124.997 123.264 125.219 123.432C125.441 123.594 125.695 123.675 125.982 123.675Z" fill="white"/>
</g>
<g filter="url(#filter7_di_1_47)">
<path d="M18.087 88.6419C17.378 88.6419 16.7357 88.5083 16.1603 88.2411C15.5848 87.9739 15.1275 87.5834 14.7884 87.0696C14.4493 86.5456 14.2643 85.9136 14.2335 85.1737H15.8674C15.8982 85.7389 16.1038 86.2065 16.484 86.5764C16.8745 86.9463 17.4088 87.1313 18.087 87.1313C18.755 87.1313 19.2791 86.9669 19.6593 86.638C20.0395 86.3092 20.2296 85.8571 20.2296 85.2816C20.2296 84.6445 19.9984 84.1769 19.536 83.8789C19.0735 83.5809 18.5084 83.4319 17.8404 83.4319H16.8847V81.983H17.7017C18.308 81.983 18.8064 81.8597 19.1969 81.6131C19.5873 81.3664 19.7826 80.9811 19.7826 80.457C19.7826 80.0049 19.6336 79.6503 19.3356 79.3934C19.0376 79.1263 18.6163 78.9927 18.0716 78.9927C17.5167 78.9927 17.0748 79.1417 16.746 79.4397C16.4172 79.7377 16.2322 80.1179 16.1911 80.5803H14.5726C14.6035 79.9637 14.7679 79.4243 15.0659 78.9618C15.3639 78.4994 15.7698 78.1397 16.2836 77.8828C16.7974 77.6157 17.3934 77.4821 18.0716 77.4821C18.8115 77.4821 19.4281 77.6105 19.9213 77.8674C20.4146 78.1141 20.7845 78.448 21.0311 78.8693C21.2778 79.2907 21.4011 79.7634 21.4011 80.2874C21.4011 80.8218 21.2418 81.2842 20.9232 81.6747C20.6149 82.0549 20.2399 82.3324 19.798 82.5071V82.5996C20.394 82.764 20.8821 83.0723 21.2623 83.5244C21.6528 83.9663 21.8481 84.5623 21.8481 85.3124C21.8481 85.9187 21.6991 86.4788 21.4011 86.9926C21.1133 87.4961 20.6869 87.8969 20.1217 88.1949C19.5668 88.4929 18.8886 88.6419 18.087 88.6419ZM29.0558 88.4569V86.1294H23.9384V84.85L28.763 77.6671H30.6897V84.6496H32.0924V86.1294H30.6897V88.4569H29.0558ZM25.7572 84.6496H29.1483V79.5013L25.7572 84.6496ZM37.7125 88.6419C36.9624 88.6419 36.3099 88.5032 35.7549 88.2257C35.2 87.9482 34.7633 87.568 34.4448 87.0851C34.1365 86.6021 33.9566 86.0575 33.9053 85.4512H35.57C35.6727 85.9547 35.9091 86.3606 36.279 86.6689C36.6592 86.9772 37.1422 87.1313 37.728 87.1313C38.4164 87.1313 38.9611 86.9155 39.3618 86.4839C39.7626 86.042 39.963 85.4769 39.963 84.7884C39.963 84.0588 39.7575 83.4936 39.3464 83.0928C38.9354 82.692 38.4113 82.4917 37.7742 82.4917C37.2604 82.4917 36.8237 82.6098 36.464 82.8462C36.1043 83.0825 35.8217 83.3805 35.6162 83.7402H34.044L34.9688 77.6671H40.8416V79.1776H36.2328L35.7087 81.9368H35.8166C36.0324 81.6901 36.3201 81.4846 36.6798 81.3202C37.0497 81.1558 37.4865 81.0736 37.99 81.0736C38.7299 81.0736 39.3618 81.2328 39.8859 81.5514C40.4203 81.87 40.8313 82.3118 41.119 82.877C41.4068 83.4319 41.5506 84.0639 41.5506 84.7729C41.5506 85.4923 41.3914 86.1448 41.0728 86.7305C40.7645 87.3163 40.3227 87.7838 39.7472 88.1332C39.1717 88.4723 38.4935 88.6419 37.7125 88.6419ZM47.5715 88.6419C46.8214 88.6419 46.1688 88.5032 45.6139 88.2257C45.059 87.9482 44.6223 87.568 44.3037 87.0851C43.9955 86.6021 43.8156 86.0575 43.7643 85.4512H45.429C45.5317 85.9547 45.7681 86.3606 46.138 86.6689C46.5182 86.9772 47.0012 87.1313 47.5869 87.1313C48.2754 87.1313 48.8201 86.9155 49.2208 86.4839C49.6216 86.042 49.822 85.4769 49.822 84.7884C49.822 84.0588 49.6165 83.4936 49.2054 83.0928C48.7944 82.692 48.2703 82.4917 47.6332 82.4917C47.1194 82.4917 46.6827 82.6098 46.323 82.8462C45.9633 83.0825 45.6807 83.3805 45.4752 83.7402H43.903L44.8278 77.6671H50.7006V79.1776H46.0918L45.5677 81.9368H45.6756C45.8914 81.6901 46.1791 81.4846 46.5388 81.3202C46.9087 81.1558 47.3455 81.0736 47.849 81.0736C48.5889 81.0736 49.2208 81.2328 49.7449 81.5514C50.2793 81.87 50.6903 82.3118 50.978 82.877C51.2658 83.4319 51.4096 84.0639 51.4096 84.7729C51.4096 85.4923 51.2504 86.1448 50.9318 86.7305C50.6235 87.3163 50.1816 87.7838 49.6062 88.1332C49.0307 88.4723 48.3525 88.6419 47.5715 88.6419ZM68.4918 88.4569V86.1294H63.3743V84.85L68.1989 77.6671H70.1257V84.6496H71.5284V86.1294H70.1257V88.4569H68.4918ZM65.1932 84.6496H68.5843V79.5013L65.1932 84.6496ZM77.1485 88.6419C76.3984 88.6419 75.7458 88.5032 75.1909 88.2257C74.636 87.9482 74.1993 87.568 73.8807 87.0851C73.5724 86.6021 73.3926 86.0575 73.3412 85.4512H75.0059C75.1087 85.9547 75.3451 86.3606 75.715 86.6689C76.0952 86.9772 76.5782 87.1313 77.1639 87.1313C77.8524 87.1313 78.397 86.9155 78.7978 86.4839C79.1986 86.042 79.399 85.4769 79.399 84.7884C79.399 84.0588 79.1934 83.4936 78.7824 83.0928C78.3714 82.692 77.8473 82.4917 77.2102 82.4917C76.6964 82.4917 76.2596 82.6098 75.9 82.8462C75.5403 83.0825 75.2577 83.3805 75.0522 83.7402H73.48L74.4048 77.6671H80.2776V79.1776H75.6688L75.1447 81.9368H75.2526C75.4684 81.6901 75.7561 81.4846 76.1158 81.3202C76.4857 81.1558 76.9224 81.0736 77.426 81.0736C78.1658 81.0736 78.7978 81.2328 79.3219 81.5514C79.8562 81.87 80.2673 82.3118 80.555 82.877C80.8427 83.4319 80.9866 84.0639 80.9866 84.7729C80.9866 85.4923 80.8273 86.1448 80.5088 86.7305C80.2005 87.3163 79.7586 87.7838 79.1832 88.1332C78.6077 88.4723 77.9295 88.6419 77.1485 88.6419ZM87.2387 88.6419C86.4783 88.6419 85.836 88.5032 85.312 88.2257C84.7879 87.938 84.3614 87.5526 84.0326 87.0696C83.714 86.5867 83.4777 86.0369 83.3235 85.4203C83.1797 84.7935 83.1077 84.1358 83.1077 83.4473C83.1077 82.2553 83.2722 81.2123 83.601 80.3183C83.9401 79.4243 84.4231 78.7306 85.0499 78.2374C85.6768 77.7338 86.432 77.4821 87.3158 77.4821C88.0454 77.4821 88.6568 77.6157 89.1501 77.8828C89.6536 78.1397 90.0441 78.4994 90.3215 78.9618C90.6093 79.414 90.784 79.9329 90.8456 80.5187H89.3196C89.2169 80.0357 88.9856 79.6555 88.626 79.378C88.2663 79.1006 87.8244 78.9618 87.3004 78.9618C86.6119 78.9618 86.0159 79.2907 85.5123 79.9483C85.0088 80.5957 84.7262 81.6131 84.6646 83.0003H84.757C84.9728 82.6098 85.312 82.2656 85.7744 81.9676C86.2471 81.6696 86.8071 81.5206 87.4545 81.5206C88.0813 81.5206 88.6517 81.6696 89.1655 81.9676C89.6793 82.2553 90.0852 82.6612 90.3832 83.1853C90.6915 83.7094 90.8456 84.3157 90.8456 85.0042C90.8456 85.6515 90.6966 86.2527 90.3986 86.8076C90.1109 87.3625 89.6947 87.8095 89.1501 88.1486C88.6157 88.4775 87.9786 88.6419 87.2387 88.6419ZM87.1308 87.1621C87.7577 87.1621 88.2612 86.9669 88.6414 86.5764C89.0319 86.1859 89.2271 85.6875 89.2271 85.0812C89.2271 84.4749 89.0319 83.9765 88.6414 83.5861C88.2612 83.1853 87.7577 82.9849 87.1308 82.9849C86.504 82.9849 85.9902 83.1802 85.5894 83.5706C85.1989 83.9611 85.0037 84.4595 85.0037 85.0658C85.0037 85.6618 85.1989 86.1602 85.5894 86.561C85.9902 86.9617 86.504 87.1621 87.1308 87.1621ZM93.3367 88.4569V87.1621C94.3951 86.3195 95.3199 85.5436 96.1112 84.8346C96.9127 84.1256 97.5396 83.4422 97.9917 82.7845C98.4439 82.1269 98.6699 81.4589 98.6699 80.7807C98.6699 80.2155 98.5107 79.7736 98.1921 79.4551C97.8735 79.1263 97.4419 78.9618 96.8973 78.9618C96.2705 78.9618 95.7875 79.1622 95.4484 79.563C95.1093 79.9535 94.9397 80.421 94.9397 80.9657H93.3521C93.3624 80.2052 93.5216 79.5681 93.8299 79.0543C94.1382 78.5405 94.5544 78.15 95.0785 77.8828C95.6128 77.6157 96.2191 77.4821 96.8973 77.4821C97.9969 77.4821 98.8446 77.7801 99.4406 78.3761C100.037 78.9618 100.335 79.748 100.335 80.7345C100.335 81.3613 100.196 81.9676 99.9185 82.5533C99.6513 83.1288 99.2968 83.6785 98.8549 84.2026C98.413 84.7267 97.9198 85.2251 97.3752 85.6978C96.8408 86.1705 96.3013 86.6226 95.7567 87.0542H100.628V88.4569H93.3367ZM114.442 88.4569L118.527 79.1468H112.885V77.6671H120.207V78.931L116.153 88.4569H114.442ZM124.301 88.4569L128.386 79.1468H122.744V77.6671H130.066V78.931L126.012 88.4569H124.301ZM132.711 88.4569V86.9926H135.378V79.5938L132.834 80.0562V78.7306L136.01 77.6671H137.012V86.9926H139.879V88.4569H132.711ZM146.177 88.6419C145.345 88.6419 144.615 88.4158 143.988 87.9637C143.372 87.5115 142.894 86.8693 142.555 86.0369C142.215 85.1943 142.046 84.2026 142.046 83.062C142.046 81.9111 142.215 80.9194 142.555 80.0871C142.894 79.2547 143.372 78.6124 143.988 78.1603C144.615 77.7082 145.345 77.4821 146.177 77.4821C147.02 77.4821 147.749 77.7082 148.366 78.1603C148.982 78.6124 149.46 79.2547 149.799 80.0871C150.138 80.9194 150.308 81.9111 150.308 83.062C150.308 84.2026 150.138 85.1943 149.799 86.0369C149.46 86.8693 148.982 87.5115 148.366 87.9637C147.749 88.4158 147.02 88.6419 146.177 88.6419ZM143.711 83.062C143.711 83.6374 143.762 84.1615 143.865 84.6342C143.968 85.1069 144.111 85.518 144.296 85.8673L146.994 79.193C146.737 79.0697 146.465 79.0081 146.177 79.0081C145.458 79.0081 144.867 79.3729 144.404 80.1025C143.942 80.8218 143.711 81.8083 143.711 83.062ZM146.177 87.1313C146.66 87.1313 147.086 86.9669 147.456 86.638C147.826 86.3092 148.114 85.8417 148.319 85.2354C148.535 84.6188 148.643 83.8943 148.643 83.062C148.643 82.4865 148.592 81.9624 148.489 81.4897C148.386 81.017 148.242 80.6111 148.057 80.272L145.36 86.9463C145.617 87.0696 145.889 87.1313 146.177 87.1313ZM165.972 88.6419C165.263 88.6419 164.621 88.5083 164.045 88.2411C163.47 87.9739 163.012 87.5834 162.673 87.0696C162.334 86.5456 162.149 85.9136 162.118 85.1737H163.752C163.783 85.7389 163.989 86.2065 164.369 86.5764C164.759 86.9463 165.294 87.1313 165.972 87.1313C166.64 87.1313 167.164 86.9669 167.544 86.638C167.924 86.3092 168.114 85.8571 168.114 85.2816C168.114 84.6445 167.883 84.1769 167.421 83.8789C166.958 83.5809 166.393 83.4319 165.725 83.4319H164.77V81.983H165.587C166.193 81.983 166.691 81.8597 167.082 81.6131C167.472 81.3664 167.667 80.9811 167.667 80.457C167.667 80.0049 167.518 79.6503 167.22 79.3934C166.922 79.1263 166.501 78.9927 165.957 78.9927C165.402 78.9927 164.96 79.1417 164.631 79.4397C164.302 79.7377 164.117 80.1179 164.076 80.5803H162.458C162.488 79.9637 162.653 79.4243 162.951 78.9618C163.249 78.4994 163.655 78.1397 164.168 77.8828C164.682 77.6157 165.278 77.4821 165.957 77.4821C166.696 77.4821 167.313 77.6105 167.806 77.8674C168.299 78.1141 168.669 78.448 168.916 78.8693C169.163 79.2907 169.286 79.7634 169.286 80.2874C169.286 80.8218 169.127 81.2842 168.808 81.6747C168.5 82.0549 168.125 82.3324 167.683 82.5071V82.5996C168.279 82.764 168.767 83.0723 169.147 83.5244C169.538 83.9663 169.733 84.5623 169.733 85.3124C169.733 85.9187 169.584 86.4788 169.286 86.9926C168.998 87.4961 168.572 87.8969 168.007 88.1949C167.452 88.4929 166.773 88.6419 165.972 88.6419ZM175.738 88.6419C174.988 88.6419 174.336 88.5032 173.781 88.2257C173.226 87.9482 172.789 87.568 172.471 87.0851C172.162 86.6021 171.983 86.0575 171.931 85.4512H173.596C173.699 85.9547 173.935 86.3606 174.305 86.6689C174.685 86.9772 175.168 87.1313 175.754 87.1313C176.442 87.1313 176.987 86.9155 177.388 86.4839C177.788 86.042 177.989 85.4769 177.989 84.7884C177.989 84.0588 177.783 83.4936 177.372 83.0928C176.961 82.692 176.437 82.4917 175.8 82.4917C175.286 82.4917 174.85 82.6098 174.49 82.8462C174.13 83.0825 173.848 83.3805 173.642 83.7402H172.07L172.995 77.6671H178.867V79.1776H174.259L173.735 81.9368H173.842C174.058 81.6901 174.346 81.4846 174.706 81.3202C175.076 81.1558 175.512 81.0736 176.016 81.0736C176.756 81.0736 177.388 81.2328 177.912 81.5514C178.446 81.87 178.857 82.3118 179.145 82.877C179.433 83.4319 179.577 84.0639 179.577 84.7729C179.577 85.4923 179.417 86.1448 179.099 86.7305C178.79 87.3163 178.349 87.7838 177.773 88.1332C177.198 88.4723 176.519 88.6419 175.738 88.6419ZM185.613 88.6419C184.78 88.6419 184.051 88.4158 183.424 87.9637C182.807 87.5115 182.33 86.8693 181.991 86.0369C181.651 85.1943 181.482 84.2026 181.482 83.062C181.482 81.9111 181.651 80.9194 181.991 80.0871C182.33 79.2547 182.807 78.6124 183.424 78.1603C184.051 77.7082 184.78 77.4821 185.613 77.4821C186.455 77.4821 187.185 77.7082 187.802 78.1603C188.418 78.6124 188.896 79.2547 189.235 80.0871C189.574 80.9194 189.744 81.9111 189.744 83.062C189.744 84.2026 189.574 85.1943 189.235 86.0369C188.896 86.8693 188.418 87.5115 187.802 87.9637C187.185 88.4158 186.455 88.6419 185.613 88.6419ZM183.147 83.062C183.147 83.6374 183.198 84.1615 183.301 84.6342C183.403 85.1069 183.547 85.518 183.732 85.8673L186.43 79.193C186.173 79.0697 185.901 79.0081 185.613 79.0081C184.894 79.0081 184.303 79.3729 183.84 80.1025C183.378 80.8218 183.147 81.8083 183.147 83.062ZM185.613 87.1313C186.096 87.1313 186.522 86.9669 186.892 86.638C187.262 86.3092 187.55 85.8417 187.755 85.2354C187.971 84.6188 188.079 83.8943 188.079 83.062C188.079 82.4865 188.028 81.9624 187.925 81.4897C187.822 81.017 187.678 80.6111 187.493 80.272L184.796 86.9463C185.053 87.0696 185.325 87.1313 185.613 87.1313ZM193.314 88.4569L197.399 79.1468H191.757V77.6671H199.079V78.931L195.025 88.4569H193.314Z" fill="white"/>
</g>
<path d="M-2.02283 1.23312H227.56V144.849H-2.02283V1.23312Z" fill="white" fill-opacity="0.05"/>
</g>
<path d="M189.831 25.052L191.389 15.8702H193.879L192.321 25.052H189.831ZM201.308 16.0716C200.593 15.8115 199.838 15.6809 199.078 15.6861C196.62 15.6861 194.889 16.9298 194.874 18.7128C194.86 20.0306 196.11 20.7656 197.054 21.2041C198.022 21.6538 198.347 21.9405 198.343 22.342C198.337 22.9566 197.569 23.2372 196.855 23.2372C195.859 23.2372 195.33 23.0967 194.513 22.7561L194.192 22.6104L193.843 24.6632C194.424 24.919 195.499 25.141 196.614 25.1523C199.229 25.1523 200.926 23.923 200.946 22.0192C200.955 20.9759 200.293 20.1819 198.857 19.5275C197.988 19.1058 197.455 18.8201 197.461 18.3905C197.461 18.0096 197.912 17.6021 198.886 17.6021C199.524 17.5877 200.158 17.7074 200.747 17.9534L200.97 18.0593L201.308 16.0716ZM207.706 15.8702H205.79C205.196 15.8702 204.752 16.0332 204.492 16.6282L200.808 25.0052H203.43C203.43 25.0052 203.85 23.8912 203.946 23.6466L207.087 23.6504C207.16 23.9671 207.385 25.0052 207.385 25.0052H209.713L207.706 15.8702ZM204.659 21.7728C204.865 21.2444 205.651 19.2094 205.651 19.2094C205.636 19.2337 205.855 18.6781 205.98 18.3338L206.148 19.1246C206.148 19.1246 206.625 21.3137 206.724 21.7728H204.659ZM187.718 15.8702L185.288 22.1096L185.029 20.8415C184.577 19.3799 183.167 17.7965 181.592 17.0039L183.814 25.0052L186.439 25.0024L190.347 15.8702H187.706" fill="url(#paint1_linear_1_47)"/>
<path d="M182.911 15.8703H178.917L178.885 16.061C182.005 16.8203 184.07 18.6549 184.928 20.8585L184.055 16.6423C183.905 16.0619 183.468 15.8886 182.928 15.8684" fill="url(#paint2_linear_1_47)"/>
<path fill-rule="evenodd" clip-rule="evenodd" d="M14.2606 23.4071L14.2582 23.4103L14.2559 23.4136C14.1263 23.5979 13.8362 23.6521 13.6093 23.491C13.4277 23.3622 13.3731 23.075 13.5277 22.848C13.7585 22.5524 13.9261 22.2068 14.0362 21.8691C14.1508 21.5174 14.2041 21.1178 14.2021 20.7259C14.2 20.3339 14.1425 19.9349 14.0242 19.5845C13.9105 19.2479 13.7393 18.9042 13.5054 18.6111C13.3483 18.3858 13.3999 18.098 13.5802 17.9672C13.8053 17.8038 14.096 17.8548 14.2275 18.0377L14.2299 18.0409L14.2323 18.0442C14.5234 18.4299 14.7621 18.8584 14.9048 19.2788C15.055 19.7734 15.1507 20.2518 15.1531 20.7207C15.1557 21.2142 15.1088 21.6813 14.9285 22.1411C14.7323 22.6419 14.5422 23.0256 14.2606 23.4071ZM16.3653 24.323L16.371 24.3149L16.3762 24.3065C17.0215 23.2678 17.3937 22.0144 17.3868 20.7087C17.3799 19.4034 16.9947 18.1544 16.3388 17.1229C16.1967 16.8964 16.2606 16.6286 16.5001 16.4547C16.6611 16.3379 16.9631 16.3793 17.1423 16.6206C17.8828 17.8011 18.3301 19.2281 18.3378 20.7036C18.3459 22.2295 17.9141 23.6102 17.1854 24.7994C17.0168 25.0325 16.7588 25.0978 16.5363 24.9657C16.2951 24.7881 16.251 24.4856 16.3653 24.323ZM20.1426 15.0689L20.1489 15.0815L20.1563 15.0935C21.1596 16.7372 21.7172 18.6332 21.728 20.6854C21.7388 22.7367 21.2018 24.6377 20.2167 26.2915C20.0657 26.5355 19.8107 26.6043 19.5522 26.4835C19.317 26.3294 19.2538 26.0741 19.3767 25.8163C20.2145 24.3214 20.7354 22.5598 20.7256 20.6908C20.7158 18.8301 20.2316 17.0714 19.3209 15.5764C19.1977 15.3211 19.2587 15.0669 19.4912 14.9111C19.7716 14.7765 20.0448 14.8751 20.1426 15.0689ZM23.1136 13.5045L23.118 13.5131L23.1228 13.5215C24.3387 15.6333 25.053 18.0478 25.0668 20.6674C25.0806 23.2844 24.3932 25.7041 23.2019 27.8273C23.0507 28.0685 22.7969 28.1361 22.5396 28.0158C22.3051 27.8622 22.2416 27.6081 22.3629 27.351C23.5105 25.3831 24.1286 23.1031 24.1157 20.6726C24.1029 18.2357 23.4065 15.9646 22.294 14.0161C22.1546 13.7317 22.2528 13.4531 22.4474 13.3541C22.733 13.2086 23.0142 13.3073 23.1136 13.5045Z" fill="white"/>
<g opacity="0.7">
<rect x="186.47" y="113.11" width="22.9589" height="17.4438" rx="2.6569" fill="white" fill-opacity="0.26" stroke="white" stroke-width="0.567887"/>
<path d="M186.554 118.367H192.803C193.615 118.367 194.273 119.025 194.273 119.837V122.707M194.273 130.483V127.047M194.273 127.047V122.707M194.273 127.047H186.554M194.273 122.707H186.554" stroke="white" stroke-width="0.567887"/>
<path d="M209.345 118.367H201.993M201.993 118.367V122.707M201.993 118.367V113.195M201.993 130.482V127.047M201.993 127.047V122.707M201.993 127.047H209.345M201.993 122.707H209.345" stroke="white" stroke-width="0.567887"/>
</g>
<defs>
<filter id="filter0_f_1_47" x="-40.2614" y="-215.39" width="270.206" height="261.296" filterUnits="userSpaceOnUse" color-interpolation-filters="sRGB">
<feFlood flood-opacity="0" result="BackgroundImageFix"/>
<feBlend mode="normal" in="SourceGraphic" in2="BackgroundImageFix" result="shape"/>
<feGaussianBlur stdDeviation="20.9009" result="effect1_foregroundBlur_1_47"/>
</filter>
<filter id="filter1_f_1_47" x="56.9564" y="-182.159" width="270.206" height="261.296" filterUnits="userSpaceOnUse" color-interpolation-filters="sRGB">
<feFlood flood-opacity="0" result="BackgroundImageFix"/>
<feBlend mode="normal" in="SourceGraphic" in2="BackgroundImageFix" result="shape"/>
<feGaussianBlur stdDeviation="20.9009" result="effect1_foregroundBlur_1_47"/>
</filter>
<filter id="filter2_f_1_47" x="85.0938" y="-115.593" width="275.99" height="263.908" filterUnits="userSpaceOnUse" color-interpolation-filters="sRGB">
<feFlood flood-opacity="0" result="BackgroundImageFix"/>
<feBlend mode="normal" in="SourceGraphic" in2="BackgroundImageFix" result="shape"/>
<feGaussianBlur stdDeviation="29.2612" result="effect1_foregroundBlur_1_47"/>
</filter>
<filter id="filter3_f_1_47" x="66.9246" y="-134.066" width="223.711" height="230.884" filterUnits="userSpaceOnUse" color-interpolation-filters="sRGB">
<feFlood flood-opacity="0" result="BackgroundImageFix"/>
<feBlend mode="normal" in="SourceGraphic" in2="BackgroundImageFix" result="shape"/>
<feGaussianBlur stdDeviation="22.2942" result="effect1_foregroundBlur_1_47"/>
</filter>
<filter id="filter4_f_1_47" x="-13.5682" y="-167.006" width="328.623" height="239.16" filterUnits="userSpaceOnUse" color-interpolation-filters="sRGB">
<feFlood flood-opacity="0" result="BackgroundImageFix"/>
<feBlend mode="normal" in="SourceGraphic" in2="BackgroundImageFix" result="shape"/>
<feGaussianBlur stdDeviation="22.2942" result="effect1_foregroundBlur_1_47"/>
</filter>
<filter id="filter5_di_1_47" x="11.9984" y="118.787" width="47.3537" height="9.18355" filterUnits="userSpaceOnUse" color-interpolation-filters="sRGB">
<feFlood flood-opacity="0" result="BackgroundImageFix"/>
<feColorMatrix in="SourceAlpha" type="matrix" values="0 0 0 0 0 0 0 0 0 0 0 0 0 0 0 0 0 0 127 0" result="hardAlpha"/>
<feOffset dy="1.62253"/>
<feGaussianBlur stdDeviation="0.811267"/>
<feComposite in2="hardAlpha" operator="out"/>
<feColorMatrix type="matrix" values="0 0 0 0 0.0875 0 0 0 0 0.0875 0 0 0 0 0.0875 0 0 0 0.16 0"/>
<feBlend mode="normal" in2="BackgroundImageFix" result="effect1_dropShadow_1_47"/>
<feBlend mode="normal" in="SourceGraphic" in2="effect1_dropShadow_1_47" result="shape"/>
<feColorMatrix in="SourceAlpha" type="matrix" values="0 0 0 0 0 0 0 0 0 0 0 0 0 0 0 0 0 0 127 0" result="hardAlpha"/>
<feOffset dy="1.62253"/>
<feGaussianBlur stdDeviation="0.811267"/>
<feComposite in2="hardAlpha" operator="arithmetic" k2="-1" k3="1"/>
<feColorMatrix type="matrix" values="0 0 0 0 0.682353 0 0 0 0 0.682353 0 0 0 0 0.682353 0 0 0 0.25 0"/>
<feBlend mode="normal" in2="shape" result="effect2_innerShadow_1_47"/>
</filter>
<filter id="filter6_di_1_47" x="102.998" y="118.167" width="27.0639" height="10.4085" filterUnits="userSpaceOnUse" color-interpolation-filters="sRGB">
<feFlood flood-opacity="0" result="BackgroundImageFix"/>
<feColorMatrix in="SourceAlpha" type="matrix" values="0 0 0 0 0 0 0 0 0 0 0 0 0 0 0 0 0 0 127 0" result="hardAlpha"/>
<feOffset dy="1.62253"/>
<feGaussianBlur stdDeviation="0.811267"/>
<feComposite in2="hardAlpha" operator="out"/>
<feColorMatrix type="matrix" values="0 0 0 0 0.0875 0 0 0 0 0.0875 0 0 0 0 0.0875 0 0 0 0.16 0"/>
<feBlend mode="normal" in2="BackgroundImageFix" result="effect1_dropShadow_1_47"/>
<feBlend mode="normal" in="SourceGraphic" in2="effect1_dropShadow_1_47" result="shape"/>
<feColorMatrix in="SourceAlpha" type="matrix" values="0 0 0 0 0 0 0 0 0 0 0 0 0 0 0 0 0 0 127 0" result="hardAlpha"/>
<feOffset dy="1.62253"/>
<feGaussianBlur stdDeviation="0.811267"/>
<feComposite in2="hardAlpha" operator="arithmetic" k2="-1" k3="1"/>
<feColorMatrix type="matrix" values="0 0 0 0 0.682353 0 0 0 0 0.682353 0 0 0 0 0.682353 0 0 0 0.25 0"/>
<feBlend mode="normal" in2="shape" result="effect2_innerShadow_1_47"/>
</filter>
<filter id="filter7_di_1_47" x="12.2054" y="76.2652" width="188.902" height="15.2162" filterUnits="userSpaceOnUse" color-interpolation-filters="sRGB">
<feFlood flood-opacity="0" result="BackgroundImageFix"/>
<feColorMatrix in="SourceAlpha" type="matrix" values="0 0 0 0 0 0 0 0 0 0 0 0 0 0 0 0 0 0 127 0" result="hardAlpha"/>
<feOffset dy="0.811267"/>
<feGaussianBlur stdDeviation="1.01408"/>
<feComposite in2="hardAlpha" operator="out"/>
<feColorMatrix type="matrix" values="0 0 0 0 0.0916667 0 0 0 0 0.0916667 0 0 0 0 0.0916667 0 0 0 0.4 0"/>
<feBlend mode="normal" in2="BackgroundImageFix" result="effect1_dropShadow_1_47"/>
<feBlend mode="normal" in="SourceGraphic" in2="effect1_dropShadow_1_47" result="shape"/>
<feColorMatrix in="SourceAlpha" type="matrix" values="0 0 0 0 0 0 0 0 0 0 0 0 0 0 0 0 0 0 127 0" result="hardAlpha"/>
<feOffset dy="1.62253"/>
<feGaussianBlur stdDeviation="0.811267"/>
<feComposite in2="hardAlpha" operator="arithmetic" k2="-1" k3="1"/>
<feColorMatrix type="matrix" values="0 0 0 0 0.683333 0 0 0 0 0.683333 0 0 0 0 0.683333 0 0 0 0.25 0"/>
<feBlend mode="normal" in2="shape" result="effect2_innerShadow_1_47"/>
</filter>
<linearGradient id="paint0_linear_1_47" x1="1.07568e-06" y1="63.1831" x2="227.561" y2="72.8486" gradientUnits="userSpaceOnUse">
<stop stop-color="white" stop-opacity="0.05"/>
<stop offset="1" stop-color="white" stop-opacity="0.05"/>
</linearGradient>
<linearGradient id="paint1_linear_1_47" x1="195.652" y1="15.6859" x2="195.652" y2="25.1523" gradientUnits="userSpaceOnUse">
<stop stop-color="white"/>
<stop offset="1" stop-color="white" stop-opacity="0.75"/>
</linearGradient>
<linearGradient id="paint2_linear_1_47" x1="181.906" y1="15.8684" x2="181.906" y2="20.8585" gradientUnits="userSpaceOnUse">
<stop stop-color="white"/>
<stop offset="1" stop-color="white" stop-opacity="0.75"/>
</linearGradient>
</defs>
</svg>
