<svg width="32" height="32" viewBox="0 0 32 32" fill="none" xmlns="http://www.w3.org/2000/svg">
<path d="M6.35278 7.76505C7.7304 6.06339 9.47697 4.66821 11.472 3.67573C13.4671 2.68326 15.6632 2.1171 17.9088 2.01632C20.1545 1.91553 22.3962 2.28252 24.4794 3.09197C26.5626 3.90142 28.4378 5.13406 29.9755 6.70488L24.8434 11.3141C24.0016 10.4542 22.9752 9.77947 21.8348 9.33638C20.6945 8.89329 19.4674 8.6924 18.2381 8.74757C17.0089 8.80274 15.8067 9.11265 14.7146 9.65593C13.6225 10.1992 12.6664 10.9629 11.9123 11.8944L6.35278 7.76505Z" fill="white"/>
<path d="M30.0002 24.6611C28.5582 26.3131 26.7593 27.6459 24.7275 28.5675C22.6957 29.4891 20.4794 29.9776 18.2314 29.9992C15.9834 30.0209 13.7573 29.5753 11.7065 28.6931C9.65575 27.8109 7.82918 26.513 6.35278 24.8892L11.6582 20.4637C12.4664 21.3526 13.4663 22.063 14.5888 22.5459C15.7114 23.0289 16.93 23.2728 18.1606 23.261C19.3911 23.2491 20.6043 22.9817 21.7165 22.4772C22.8287 21.9727 23.8135 21.2432 24.6028 20.3389L30.0002 24.6611Z" fill="white"/>
<path d="M14.7825 16.2845L6.26085 22.9893L6.26085 9.57969L14.7825 16.2845Z" fill="#99E39E"/>
<path d="M10.5215 16.2845L1.99987 22.9893L1.99987 9.57969L10.5215 16.2845Z" fill="#99E39E"/>
</svg>
