<svg width="93" height="32" viewBox="0 0 93 32" fill="none" xmlns="http://www.w3.org/2000/svg">
<path d="M9.29628 23.9407C7.378 23.9407 5.71795 23.5275 4.31613 22.7013C2.93276 21.8566 1.86295 20.6907 1.1067 19.2034C0.3689 17.6977 0 15.9626 0 13.9979C0 12.0148 0.3689 10.2797 1.1067 8.79237C1.86295 7.28672 2.93276 6.11158 4.31613 5.26695C5.71795 4.42232 7.378 4 9.29628 4C11.6019 4 13.4833 4.56921 14.9405 5.70763C16.3976 6.82768 17.3199 8.41596 17.7072 10.4725H14.0551C13.7969 9.38912 13.2712 8.53531 12.478 7.91102C11.6849 7.28672 10.6151 6.97458 9.26861 6.97458C8.05124 6.97458 6.99988 7.25918 6.11452 7.82839C5.2476 8.37924 4.57436 9.18715 4.09479 10.2521C3.63367 11.2987 3.4031 12.5473 3.4031 13.9979C3.4031 15.4484 3.63367 16.697 4.09479 17.7436C4.57436 18.7719 5.2476 19.5706 6.11452 20.1398C6.99988 20.6907 8.05124 20.9661 9.26861 20.9661C10.6151 20.9661 11.6849 20.6815 12.478 20.1123C13.2712 19.5247 13.7969 18.7168 14.0551 17.6886H17.7072C17.3383 19.6349 16.4161 21.1681 14.9405 22.2881C13.4833 23.3898 11.6019 23.9407 9.29628 23.9407Z" fill="white"/>
<path d="M20.5686 23.6102V9.72881H23.5291L23.8334 12.3178C24.1654 11.7119 24.5804 11.1977 25.0784 10.7754C25.5764 10.3347 26.1575 9.99506 26.8215 9.75636C27.504 9.51765 28.251 9.3983 29.0626 9.3983V12.8962H27.9005C27.3472 12.8962 26.8215 12.9696 26.3235 13.1165C25.8255 13.2451 25.392 13.4654 25.0231 13.7775C24.6726 14.0713 24.396 14.4845 24.1931 15.0169C23.9902 15.5311 23.8887 16.1829 23.8887 16.9725V23.6102H20.5686Z" fill="white"/>
<path d="M32.9764 29.6695L36.3795 22.0678H35.5495L29.9883 9.72881H33.6128L37.7629 19.1483L41.6917 9.72881H45.2055L36.4902 29.6695H32.9764Z" fill="white"/>
<path d="M47.3315 29.6695V9.72881H50.292L50.6516 11.7394C50.9468 11.3355 51.2972 10.959 51.703 10.6102C52.1272 10.2429 52.6345 9.94915 53.2247 9.72881C53.8334 9.50847 54.5251 9.3983 55.2998 9.3983C56.6094 9.3983 57.7622 9.71963 58.7582 10.3623C59.7727 11.0049 60.5658 11.8771 61.1376 12.9788C61.7094 14.0621 61.9953 15.3016 61.9953 16.697C61.9953 18.0925 61.7002 19.3411 61.11 20.4428C60.5382 21.5261 59.745 22.3799 58.7305 23.0042C57.7345 23.6285 56.5909 23.9407 55.2998 23.9407C54.2484 23.9407 53.3262 23.7479 52.533 23.3623C51.7583 22.9583 51.1312 22.3891 50.6516 21.6547V29.6695H47.3315ZM54.6081 21.0763C55.3828 21.0763 56.0745 20.8927 56.6832 20.5254C57.2918 20.1582 57.7622 19.6441 58.0942 18.9831C58.4447 18.322 58.6199 17.56 58.6199 16.697C58.6199 15.8157 58.4447 15.0445 58.0942 14.3835C57.7622 13.7225 57.2918 13.2083 56.6832 12.8411C56.0745 12.4739 55.3828 12.2903 54.6081 12.2903C53.815 12.2903 53.114 12.4739 52.5054 12.8411C51.9151 13.2083 51.4448 13.7225 51.0943 14.3835C50.7623 15.0445 50.5963 15.8065 50.5963 16.6695C50.5963 17.5508 50.7623 18.322 51.0943 18.9831C51.4448 19.6257 51.9151 20.1398 52.5054 20.5254C53.114 20.8927 53.815 21.0763 54.6081 21.0763Z" fill="white"/>
<path d="M69.9964 30C68.6868 30 67.534 29.8347 66.538 29.5042C65.5604 29.1921 64.7949 28.7055 64.2416 28.0445C63.7067 27.4018 63.4392 26.5939 63.4392 25.6208C63.4392 25.0516 63.5775 24.4915 63.8542 23.9407C64.1493 23.4082 64.5828 22.9124 65.1546 22.4534C65.7448 21.976 66.4919 21.5629 67.3957 21.214L68.862 22.8114C67.9767 23.1236 67.3588 23.5 67.0083 23.9407C66.6579 24.3814 66.4826 24.8312 66.4826 25.2903C66.4826 25.7677 66.6302 26.1624 66.9253 26.4746C67.2389 26.8051 67.6539 27.053 68.1704 27.2182C68.7053 27.3835 69.3047 27.4661 69.9687 27.4661C70.6143 27.4661 71.1769 27.3743 71.6565 27.1907C72.136 27.0254 72.5049 26.7867 72.7632 26.4746C73.0398 26.1624 73.1782 25.786 73.1782 25.3453C73.1782 24.7945 72.9845 24.3446 72.5972 23.9958C72.2098 23.6653 71.4443 23.4633 70.3008 23.3898C69.3232 23.3164 68.4655 23.2154 67.7277 23.0869C66.9899 22.94 66.3535 22.7747 65.8186 22.5911C65.3022 22.4075 64.8595 22.2055 64.4906 21.9852C64.1217 21.7465 63.8173 21.5078 63.5775 21.2691V20.6356L66.4826 17.6059L68.945 18.4047L65.6803 21.572L66.538 19.9746C66.7224 20.1031 66.9069 20.2225 67.0913 20.3326C67.2942 20.4428 67.5432 20.5438 67.8383 20.6356C68.1519 20.709 68.5577 20.7825 69.0557 20.8559C69.5537 20.9294 70.1993 21.0028 70.9924 21.0763C72.2283 21.1681 73.2335 21.3884 74.0082 21.7373C74.7829 22.0862 75.3547 22.5544 75.7236 23.1419C76.0925 23.7295 76.2769 24.4364 76.2769 25.2627C76.2769 26.0706 76.0464 26.8326 75.5852 27.5487C75.1426 28.2648 74.4601 28.8524 73.5378 29.3114C72.6156 29.7705 71.4351 30 69.9964 30ZM69.9964 19.4513C68.8344 19.4513 67.8291 19.2309 66.9807 18.7903C66.1506 18.3312 65.5143 17.7253 65.0716 16.9725C64.6289 16.2013 64.4076 15.3566 64.4076 14.4386C64.4076 13.5021 64.6289 12.6575 65.0716 11.9047C65.5143 11.1518 66.1506 10.5459 66.9807 10.0869C67.8291 9.62782 68.8344 9.3983 69.9964 9.3983C71.1584 9.3983 72.1545 9.62782 72.9845 10.0869C73.8145 10.5459 74.4509 11.1518 74.8936 11.9047C75.3362 12.6575 75.5576 13.5021 75.5576 14.4386C75.5576 15.3566 75.3362 16.2013 74.8936 16.9725C74.4509 17.7253 73.8145 18.3312 72.9845 18.7903C72.1545 19.2309 71.1584 19.4513 69.9964 19.4513ZM69.9964 16.8898C70.7895 16.8898 71.4259 16.6787 71.9055 16.2564C72.385 15.834 72.6248 15.2281 72.6248 14.4386C72.6248 13.649 72.385 13.0523 71.9055 12.6483C71.4259 12.226 70.7895 12.0148 69.9964 12.0148C69.2033 12.0148 68.5577 12.226 68.0597 12.6483C67.5617 13.0523 67.3127 13.649 67.3127 14.4386C67.3127 15.2281 67.5617 15.834 68.0597 16.2564C68.5577 16.6787 69.2033 16.8898 69.9964 16.8898ZM72.2928 12.1525L71.6565 9.72881H77.3836V11.7945L72.2928 12.1525Z" fill="#99E39E"/>
<path d="M86.0001 23.9407C84.6721 23.9407 83.4732 23.6377 82.4033 23.0318C81.352 22.4075 80.5219 21.5537 79.9133 20.4703C79.323 19.3686 79.0279 18.1109 79.0279 16.697C79.0279 15.2465 79.3323 13.9795 79.9409 12.8962C80.5496 11.7945 81.3796 10.9407 82.431 10.3347C83.5008 9.71045 84.6998 9.3983 86.0278 9.3983C87.3558 9.3983 88.5455 9.71045 89.5969 10.3347C90.6667 10.9407 91.4967 11.7853 92.087 12.8686C92.6957 13.952 93 15.2189 93 16.6695C93 18.1201 92.6957 19.387 92.087 20.4703C91.4783 21.5537 90.639 22.4075 89.5692 23.0318C88.5179 23.6377 87.3282 23.9407 86.0001 23.9407ZM86.0001 21.1038C86.6641 21.1038 87.2636 20.9386 87.7985 20.608C88.3519 20.2775 88.7945 19.7818 89.1265 19.1208C89.4586 18.4597 89.6246 17.6427 89.6246 16.6695C89.6246 15.6963 89.4586 14.8884 89.1265 14.2458C88.813 13.5847 88.3795 13.089 87.8262 12.7585C87.2913 12.428 86.6918 12.2627 86.0278 12.2627C85.3822 12.2627 84.7828 12.428 84.2294 12.7585C83.676 13.089 83.2334 13.5847 82.9014 14.2458C82.5694 14.8884 82.4033 15.6963 82.4033 16.6695C82.4033 17.6427 82.5694 18.4597 82.9014 19.1208C83.2334 19.7818 83.6668 20.2775 84.2017 20.608C84.7551 20.9386 85.3545 21.1038 86.0001 21.1038Z" fill="#99E39E"/>
</svg>
